<?xml version="1.0" encoding="UTF-8" standalone="no"?>
<!DOCTYPE svg  PUBLIC '-//W3C//DTD SVG 1.1//EN'  'http://www.w3.org/Graphics/SVG/1.1/DTD/svg11.dtd'>
<svg xmlns="http://www.w3.org/2000/svg">
<defs>
<font id="HelveticaNeueLTCom-BlkCn" horiz-adv-x="520">
<font-face underline-position="-50" font-weight="900" descent="-200" panose-1="2 11 8 6 3 7 2 4 2 4" units-per-em="1000" unicode-range="U+0020-25CA" bbox="-165 -233 1099 952" x-height="541" underline-thickness="50" font-family="HelveticaNeueLTCom" ascent="800" cap-height="714"/>
<missing-glyph horiz-adv-x="1000"/>
<glyph glyph-name=".notdef" horiz-adv-x="1000"/>
<glyph glyph-name=".null" horiz-adv-x="1000"/>
<glyph glyph-name="nonmarkingreturn" horiz-adv-x="0"/>
<glyph glyph-name="space" horiz-adv-x="260" unicode=" "/>
<glyph glyph-name="exclam" horiz-adv-x="314" unicode="!" d="M74 158h168v-158h-168v158zM70 475v239h174v-239l-21 -268h-134z"/>
<glyph glyph-name="quotedbl" horiz-adv-x="481" unicode='&quot;' d="M286 714h140v-374h-140v374zM55 714h140v-374h-140v374z"/>
<glyph glyph-name="numbersign" d="M208 289h89l15 116h-90zM283 173h-90l-22 -173h-110l22 173h-73v116h88l14 116h-73v116h88l22 173h110l-22 -173h89l22 173h110l-22 -173h74v-116h-88l-15 -116h74v-116h-88l-22 -173h-110z" unicode="#"/>
<glyph glyph-name="dollar" d="M206 -14q-95 10 -144 55t-49 140v27h180v-19q0 -45 17 -62t45 -17q29 0 44.5 19t15.5 46q0 34 -21.5 54t-54 34.5t-70.5 29t-70.5 38t-54 61t-21.5 99.5q0 187 183 217v58h92v-58q100 -10 145 -60.5t45 -153.5h-174v15q0 30 -13 52.5t-40 22.5q-30 0 -44 -19.5t-14 -42.5 q0 -35 22.5 -55t56.5 -34.5t73 -28t73 -37.5t56.5 -63.5t22.5 -103.5q0 -102 -53 -152.5t-156 -61.5v-90h-92v90z" unicode="$"/>
<glyph glyph-name="percent" horiz-adv-x="778" unicode="%" d="M569 178q0 -35 1.5 -56.5t5 -34t10.5 -17t18 -4.5t18 4.5t10.5 17t5 34t1.5 56.5q0 34 -1.5 56t-5 34.5t-10.5 17t-18 4.5t-18 -4.5t-10.5 -17t-5 -34.5t-1.5 -56zM492 708h110l-317 -722h-110zM139 516q0 -35 1.5 -56.5t5 -34t10.5 -17t18 -4.5t18 4.5t10.5 17t5 34 t1.5 56.5q0 34 -1.5 56t-5 34.5t-10.5 17t-18 4.5t-18 -4.5t-10.5 -17t-5 -34.5t-1.5 -56zM447 178q0 52 8 88.5t26.5 59.5t48.5 33.5t74 10.5t74 -10.5t48.5 -33.5t26.5 -59.5t8 -88.5t-8 -88.5t-26.5 -59.5t-48.5 -33.5t-74 -10.5t-74 10.5t-48.5 33.5t-26.5 59.5t-8 88.5 zM17 516q0 52 8 88.5t26.5 59.5t48.5 33.5t74 10.5t74 -10.5t48.5 -33.5t26.5 -59.5t8 -88.5t-8 -88.5t-26.5 -59.5t-48.5 -33.5t-74 -10.5t-74 10.5t-48.5 33.5t-26.5 59.5t-8 88.5z"/>
<glyph glyph-name="ampersand" horiz-adv-x="611" unicode="&amp;" d="M624 0h-198l-31 42q-20 -12 -39 -22.5t-39.5 -18t-43.5 -11.5t-51 -4q-45 0 -84.5 12.5t-69.5 37.5t-47.5 63t-17.5 88q0 63 32.5 116.5t101.5 90.5q-27 37 -47.5 78.5t-20.5 83.5q0 37 14.5 67.5t41 52.5t63.5 34t83 12t84 -12t64.5 -34t41 -52.5t14.5 -67.5 q0 -52 -32 -98.5t-92 -84.5l81 -109q11 18 16.5 39.5t7.5 44.5h156q-3 -60 -22 -116t-62 -98zM219 568q0 -16 11 -36t36 -52q33 30 46 51t13 37q0 22 -15 36t-38 14t-38 -14t-15 -36zM221 279q-22 -17 -33 -36.5t-11 -35.5q0 -17 6.5 -32t17.5 -26t24.5 -17t28.5 -6 q16 0 33.5 7.5t28.5 16.5z"/>
<glyph glyph-name="quotesingle" horiz-adv-x="260" unicode="&apos;" d="M60 714h140v-374h-140v374z"/>
<glyph glyph-name="parenleft" horiz-adv-x="314" unicode="(" d="M172 -184q-66 103 -104 214t-38 235t38 235t104 214h146q-64 -106 -92 -217.5t-28 -231.5t28 -231.5t92 -217.5h-146z"/>
<glyph glyph-name="parenright" horiz-adv-x="314" unicode=")" d="M142 714q66 -103 104 -214t38 -235t-38 -235t-104 -214h-146q64 106 92 217.5t28 231.5t-28 231.5t-92 217.5h146z"/>
<glyph glyph-name="asterisk" horiz-adv-x="406" unicode="*" d="M203 430l-75 -108l-80 58l76 107l-128 41l31 93l127 -41v134h98v-134l127 41l31 -93l-128 -41l76 -107l-80 -58z"/>
<glyph glyph-name="plus" horiz-adv-x="600" unicode="+" d="M230 506h140v-183h183v-140h-183v-183h-140v183h-183v140h183v183z"/>
<glyph glyph-name="comma" horiz-adv-x="260" unicode="," d="M46 198h168v-180q0 -97 -39 -144.5t-129 -49.5v86q36 4 50 24t14 60v12h-64v192z"/>
<glyph glyph-name="hyphen" horiz-adv-x="368" unicode="-" d="M28 365h312v-152h-312v152z"/>
<glyph glyph-name="period" horiz-adv-x="260" unicode="." d="M46 198h168v-198h-168v198z"/>
<glyph glyph-name="slash" horiz-adv-x="333" unicode="/" d="M205 728h150l-227 -742h-150z"/>
<glyph glyph-name="zero" d="M19 347q0 107 14.5 177t44 111t75 57t107.5 16t107.5 -16t75 -57t44 -111t14.5 -177t-14.5 -177t-44 -111t-75 -57t-107.5 -16t-107.5 16t-75 57t-44 111t-14.5 177zM205 230q0 -75 13 -101.5t42 -26.5t42 26.5t13 101.5v234q0 75 -13 101.5t-42 26.5t-42 -26.5 t-13 -101.5v-234z" unicode="0"/>
<glyph glyph-name="one" d="M183 0v482h-134v116q43 0 74 5.5t53 18t36 33.5t23 53h134v-708h-186z" unicode="1"/>
<glyph glyph-name="two" d="M25 468q1 55 9.5 98.5t34.5 75.5t71 49t117 17q70 0 114 -15.5t69.5 -41.5t35 -61t9.5 -75q0 -72 -24 -121t-64 -89l-110 -107q-12 -12 -26.5 -27t-19.5 -31h244v-140h-466q0 75 22.5 141.5t83.5 129.5l124 126q27 27 38.5 51.5t11.5 64.5q0 45 -13 62t-35 17 q-10 0 -19 -3.5t-16.5 -13.5t-12 -28.5t-4.5 -48.5v-30h-174z" unicode="2"/>
<glyph glyph-name="three" d="M27 494q3 111 58 162q55 52 164 52q65 0 108 -13t68.5 -38t36 -61.5t10.5 -83.5q0 -21 -5 -43.5t-16.5 -42t-30.5 -34.5t-47 -21v-2q62 -12 87 -54.5t25 -100.5q0 -120 -58 -174t-173 -54q-60 0 -104.5 11.5t-73.5 37.5t-43 69.5t-14 107.5h174q0 -30 3.5 -50t9.5 -34 q12 -26 42 -26q16 0 26 4.5t15.5 17t7.5 34t2 54.5q0 52 -16.5 70t-51.5 18h-47v116h27q21 0 36 4t25 15t15 30.5t5 50.5q0 45 -11.5 60.5t-35.5 15.5q-27 0 -38.5 -21t-11.5 -77h-168z" unicode="3"/>
<glyph glyph-name="four" d="M274 266v236h-2l-116 -236h118zM16 272l224 422h202v-428h62v-134h-62v-132h-174v132h-252v140z" unicode="4"/>
<glyph glyph-name="five" d="M41 694h411v-140h-269l-8 -119q26 24 58.5 38t72.5 14q87 0 132 -55t45 -170q0 -69 -11.5 -121t-38.5 -86.5t-71.5 -51.5t-110.5 -17q-123 0 -177.5 53.5t-54.5 149.5v23h174v-24q0 -50 13.5 -68t37.5 -18q13 0 23 4.5t17 20.5t10 46t3 81q0 60 -13.5 83.5t-39.5 23.5 q-23 0 -37 -14t-14 -46h-168z" unicode="5"/>
<glyph glyph-name="six" d="M313 526q-1 36 -14 52q-11 14 -37 14q-20 0 -35.5 -16.5t-15.5 -50.5v-113h2q12 26 44.5 41t74.5 15q38 0 69 -10.5t53.5 -35t34.5 -66t12 -103.5q0 -72 -15.5 -122.5t-46 -83t-74.5 -47t-101 -14.5q-61 0 -107 14.5t-76.5 49.5t-46 92.5t-15.5 144.5v79q0 82 8.5 145.5 t34.5 107t74 66.5t127 23q68 0 111.5 -15t68.5 -40.5t34.5 -58.5t9.5 -68h-174zM211 218q0 -68 11.5 -92t40.5 -24q26 0 39 24t13 92t-11.5 92t-40.5 24q-26 0 -39 -24t-13 -92z" unicode="6"/>
<glyph glyph-name="seven" d="M25 694h462v-139q-37 -58 -68.5 -126.5t-56 -141.5t-40 -146.5t-20.5 -140.5h-192q7 68 22.5 139t40.5 140.5t59 136t78 126.5h-285v152z" unicode="7"/>
<glyph glyph-name="eight" d="M260 -14q-57 0 -101.5 10.5t-75.5 36t-47.5 68.5t-16.5 109q0 65 29.5 110t88.5 53v2q-32 7 -52 21.5t-32 34t-16.5 42t-4.5 45.5q0 42 12.5 77t40 60t70.5 39t105 14q61 0 104.5 -14t71 -39t40 -60t12.5 -77q0 -23 -4.5 -45.5t-16.5 -42t-32.5 -34t-51.5 -21.5v-2 q32 -6 54.5 -21t36.5 -36.5t20.5 -48.5t6.5 -57q0 -66 -16.5 -109t-47 -68.5t-75.5 -36t-102 -10.5zM212 507q0 -26 4 -43t10.5 -26.5t15 -13t18.5 -3.5t18.5 3.5t15 13t10.5 26.5t4 43t-4 42.5t-10.5 26t-15 13t-18.5 3.5t-18.5 -3.5t-15 -13t-10.5 -26t-4 -42.5zM205 207 q0 -63 14.5 -84t40.5 -21t40.5 21t14.5 84q0 31 -4 51t-11 32t-17 16.5t-23 4.5q-26 0 -40.5 -21t-14.5 -83z" unicode="8"/>
<glyph glyph-name="nine" d="M207 168q1 -36 14 -52q11 -14 37 -14q20 0 35.5 16.5t15.5 49.5v113h-2q-12 -25 -44.5 -40t-74.5 -15q-38 0 -69 10t-53.5 35t-34.5 66.5t-12 103.5q0 72 15.5 122.5t46 83t74.5 47t101 14.5q61 0 106.5 -14.5t76.5 -49.5t46.5 -93t15.5 -145v-78q0 -82 -8.5 -145.5 t-34.5 -107t-74 -66.5t-127 -23q-69 0 -112.5 15t-68 40.5t-34 58.5t-9.5 68h174zM205 476q0 -68 11.5 -92t40.5 -24q26 0 39 24t13 92t-11.5 92t-40.5 24q-26 0 -39 -24t-13 -92z" unicode="9"/>
<glyph glyph-name="colon" horiz-adv-x="260" unicode=":" d="M46 541h168v-198h-168v198zM46 198h168v-198h-168v198z"/>
<glyph glyph-name="semicolon" horiz-adv-x="260" unicode=";" d="M46 198h168v-180q0 -97 -39 -144.5t-129 -49.5v86q36 4 50 24t14 60v12h-64v192zM46 541h168v-198h-168v198z"/>
<glyph glyph-name="less" horiz-adv-x="600" unicode="&lt;" d="M47 316l506 208v-134l-338 -137l338 -137v-134l-506 208v126z"/>
<glyph glyph-name="equal" horiz-adv-x="600" unicode="=" d="M47 435h506v-140h-506v140zM47 211h506v-140h-506v140z"/>
<glyph glyph-name="greater" horiz-adv-x="600" unicode="&gt;" d="M47 116l338 137l-338 137v134l506 -208v-126l-506 -208v134z"/>
<glyph glyph-name="question" horiz-adv-x="500" unicode="?" d="M32 488q0 66 14.5 112t42.5 74q29 29 70.5 41.5t96.5 12.5q109 0 160.5 -54t51.5 -144q0 -42 -10.5 -77.5t-36.5 -64.5l-73 -83q-14 -16 -18.5 -41t-4.5 -57h-162v28q0 57 9 92.5t34 64.5l59 67q20 23 24.5 46.5t4.5 41.5q0 29 -11 47t-34 18q-12 0 -21 -4.5t-15 -17.5 t-9.5 -37.5t-3.5 -64.5h-168zM160 158h168v-158h-168v158z"/>
<glyph glyph-name="at" horiz-adv-x="800" unicode="@" d="M314 346q0 -32 19.5 -55.5t52.5 -23.5q22 0 41 8.5t32.5 22.5t21 32.5t7.5 38.5q0 35 -21.5 57t-57.5 22q-20 0 -37.5 -9t-30 -23.5t-20 -33t-7.5 -36.5zM621 534l-40 -211q-2 -11 -4.5 -25t-2.5 -21q0 -22 17 -22q13 0 28 9t28.5 27.5t22.5 48.5t9 72q0 54 -19.5 95.5 t-55 70t-84 43.5t-105.5 15q-63 0 -114 -20.5t-87 -58t-55.5 -89t-19.5 -112.5q0 -65 21.5 -116.5t60.5 -87.5t92.5 -55t118.5 -19q57 0 105.5 15.5t86.5 43.5h110q-54 -75 -133.5 -113t-200.5 -38q-77 0 -144.5 29t-118 79.5t-79.5 118t-29 144.5t29 144.5t79.5 118 t118 79.5t144.5 29q73 0 140.5 -21t118.5 -60t81.5 -95t30.5 -125q0 -63 -25 -113.5t-62.5 -85t-82.5 -53t-85 -18.5q-23 0 -39 11.5t-19 32.5h-4q-17 -20 -44.5 -32t-61.5 -12q-32 0 -60 12.5t-49.5 35.5t-34 54.5t-12.5 70.5q0 44 14.5 85t41 73t64 51t83.5 19 q38 0 69.5 -14.5t56.5 -46.5l8 37h92z"/>
<glyph glyph-name="A" horiz-adv-x="556" unicode="A" d="M161 714h234l174 -714h-198l-19 125h-148l-19 -125h-198zM279 568h-2l-51 -303h104z"/>
<glyph glyph-name="B" horiz-adv-x="574" unicode="B" d="M50 714h281q100 0 147.5 -48.5t47.5 -129.5q0 -29 -6.5 -55t-20 -47.5t-34.5 -36.5t-51 -21v-2q35 -3 60 -18.5t41 -38.5t23.5 -50.5t7.5 -55.5q0 -47 -12 -85.5t-37.5 -66.5t-66.5 -43.5t-99 -15.5h-281v714zM236 434h45q29 0 44 21.5t15 50.5q0 30 -15 52t-44 22h-45 v-146zM236 134h52q26 0 46 21.5t20 66.5q0 42 -20 64t-46 22h-52v-174z"/>
<glyph glyph-name="C" horiz-adv-x="537" unicode="C" d="M329 497q0 61 -12 83t-39 22q-21 0 -33.5 -11t-19 -39t-8.5 -75.5t-2 -119.5t2 -119.5t8.5 -75.5t19 -39t33.5 -11q17 0 28 8.5t17 28.5t8.5 53.5t2.5 84.5h180v-53q0 -75 -20 -123t-53 -76t-75.5 -38.5t-87.5 -10.5q-78 0 -128 20.5t-78 65t-38.5 115t-10.5 170.5 q0 102 12.5 173t42.5 115t79 63.5t121 19.5q63 0 107 -16t71.5 -45.5t40 -71t12.5 -93.5v-45h-180v40z"/>
<glyph glyph-name="D" horiz-adv-x="574" unicode="D" d="M230 134h37q27 0 43 7.5t24.5 31.5t11 68t2.5 116t-2.5 116t-11 68t-24.5 31.5t-43 7.5h-37v-446zM44 714h270q81 0 126 -29.5t67.5 -79t27.5 -114t5 -134.5t-5 -134.5t-27.5 -114t-67.5 -79t-126 -29.5h-270v714z"/>
<glyph glyph-name="E" horiz-adv-x="500" unicode="E" d="M44 714h423v-152h-237v-122h222v-146h-222v-142h246v-152h-432v714z"/>
<glyph glyph-name="F" horiz-adv-x="481" unicode="F" d="M44 714h423v-152h-237v-122h222v-146h-222v-294h-186v714z"/>
<glyph glyph-name="G" horiz-adv-x="556" unicode="G" d="M284 388h240v-388h-126l-4 63h-2q-9 -23 -25.5 -38t-37 -23.5t-44 -12t-47.5 -3.5q-71 0 -112 25t-62 72t-26.5 116t-5.5 158q0 90 10.5 159t40 116t81 71.5t134.5 24.5q49 0 90.5 -13t71.5 -42t47 -74.5t17 -110.5h-180q0 57 -10 83q-10 31 -43 31q-23 0 -36.5 -11 t-20 -39t-8.5 -75.5t-2 -119.5t2 -119.5t8.5 -75.5t19 -39t33.5 -11q15 0 26.5 6t19.5 22.5t12.5 45.5t4.5 76h-66v126z"/>
<glyph glyph-name="H" horiz-adv-x="574" unicode="H" d="M44 714h186v-262h114v262h186v-714h-186v294h-114v-294h-186v714z"/>
<glyph glyph-name="I" horiz-adv-x="260" unicode="I" d="M37 714h186v-714h-186v714z"/>
<glyph glyph-name="J" horiz-adv-x="481" unicode="J" d="M451 714v-491q0 -129 -59 -183t-174 -54q-117 0 -167 59.5t-50 171.5v15h168v-35q0 -51 13.5 -68t34.5 -17t34.5 17t13.5 68v517h186z"/>
<glyph glyph-name="K" horiz-adv-x="556" unicode="K" d="M37 714h186v-274h2l138 274h198l-180 -312l202 -402h-212l-109 249l-39 -60v-189h-186v714z"/>
<glyph glyph-name="L" horiz-adv-x="463" unicode="L" d="M44 714h186v-562h229v-152h-415v714z"/>
<glyph glyph-name="M" horiz-adv-x="758" unicode="M" d="M37 714h266l75 -423h2l75 423h266v-714h-174v532h-2l-99 -532h-134l-99 532h-2v-532h-174v714z"/>
<glyph glyph-name="N" horiz-adv-x="592" unicode="N" d="M44 714h208l120 -440h2v440h174v-714h-204l-124 441h-2v-441h-174v714z"/>
<glyph glyph-name="O" horiz-adv-x="556" unicode="O" d="M23 357q0 100 13 170.5t43 115t79 65t120 20.5t120 -20.5t79 -65t43 -115t13 -170.5t-13 -170.5t-43 -115t-79 -65t-120 -20.5t-120 20.5t-79 65t-43 115t-13 170.5zM215 357q0 -72 2 -119.5t8.5 -75.5t19 -39t33.5 -11t33.5 11t19 39t8.5 75.5t2 119.5t-2 119.5 t-8.5 75.5t-19 39t-33.5 11t-33.5 -11t-19 -39t-8.5 -75.5t-2 -119.5z"/>
<glyph glyph-name="P" horiz-adv-x="537" unicode="P" d="M37 714h279q53 0 92 -17t64.5 -46.5t37.5 -70t12 -86.5q0 -111 -59.5 -166.5t-174.5 -55.5h-65v-272h-186v714zM223 406h35q35 0 53.5 21t18.5 66q0 87 -72 87h-35v-174z"/>
<glyph glyph-name="Q" horiz-adv-x="556" unicode="Q" d="M215 357q0 -72 2 -119.5t8.5 -75.5t19 -39t33.5 -11t33.5 11t19 39t8.5 75.5t2 119.5t-2 119.5t-8.5 75.5t-19 39t-33.5 11t-33.5 -11t-19 -39t-8.5 -75.5t-2 -119.5zM447 -119l-102 110l-16 -2l-16 -2q-4 -1 -8 -1h-9h-18q-71 0 -120 20.5t-79 65t-43 115t-13 170.5 t13 170.5t43 115t79 65t120 20.5t120 -20.5t79 -65t43 -115t13 -170.5q0 -103 -14 -174t-46 -116l86 -89z"/>
<glyph glyph-name="R" horiz-adv-x="574" unicode="R" d="M44 714h291q53 0 90.5 -14t61 -39.5t34 -60.5t10.5 -76q0 -72 -29 -116t-93 -54v-2q67 -6 92 -47t25 -113v-61v-29t1 -28.5t3 -24.5t5 -17q4 -6 8 -11.5t13 -10.5v-10h-198q-7 14 -10.5 33t-5 38t-2 36.5t-0.5 28.5v48q0 30 -3 50t-10.5 31.5t-19 16t-28.5 4.5h-49v-286 h-186v714zM230 412h37q40 0 59 23.5t19 61.5q0 45 -18.5 64t-60.5 19h-36v-168z"/>
<glyph glyph-name="S" horiz-adv-x="537" unicode="S" d="M322 508v17q0 32 -13 54.5t-40 22.5q-30 0 -44 -19.5t-14 -43.5q0 -35 22.5 -55.5t56.5 -35.5t73 -30.5t73 -40.5t56.5 -65.5t22.5 -105.5q0 -114 -65 -167t-188 -53q-58 0 -102.5 10.5t-75 34.5t-46.5 62t-16 94v25h180v-17q0 -46 17 -64.5t44 -18.5q29 0 44.5 20 t15.5 49q0 35 -21.5 55.5t-54 35t-70.5 29.5t-70.5 39t-54 63t-21.5 102q0 109 58 166t176 57q122 0 176.5 -52.5t54.5 -167.5h-174z"/>
<glyph glyph-name="T" horiz-adv-x="462" unicode="T" d="M138 556h-140v158h466v-158h-140v-556h-186v556z"/>
<glyph glyph-name="U" horiz-adv-x="556" unicode="U" d="M222 714v-515q0 -52 15 -69.5t41 -17.5t41 17.5t15 69.5v515h186v-468q0 -75 -16 -125t-46.5 -80t-76 -42.5t-103.5 -12.5q-59 0 -104 12.5t-75.5 42.5t-46.5 80t-16 125v468h186z"/>
<glyph glyph-name="V" d="M-14 714h198l75 -538h2l75 538h198l-154 -714h-240z" unicode="V"/>
<glyph glyph-name="W" horiz-adv-x="778" unicode="W" d="M305 714h168l73 -494h2l50 494h180l-122 -714h-204l-62 480h-2l-62 -480h-204l-122 714h180l56 -494h2z"/>
<glyph glyph-name="X" horiz-adv-x="536" unicode="X" d="M0 714h208l59 -207h2l59 207h208l-155 -352l167 -362h-208l-71 215h-2l-71 -215h-208l169 362z"/>
<glyph glyph-name="Y" d="M167 281l-182 433h204l70 -249h2l70 249h204l-182 -433v-281h-186v281z" unicode="Y"/>
<glyph glyph-name="Z" horiz-adv-x="481" unicode="Z" d="M20 134l224 428h-209v152h426v-134l-228 -428h228v-152h-441v134z"/>
<glyph glyph-name="bracketleft" horiz-adv-x="314" unicode="[" d="M44 714h270v-126h-102v-646h102v-126h-270v898z"/>
<glyph glyph-name="backslash" horiz-adv-x="333" unicode="\" d="M-22 728h150l227 -742h-150z"/>
<glyph glyph-name="bracketright" horiz-adv-x="314" unicode="]" d="M102 588h-102v126h270v-898h-270v126h102v646z"/>
<glyph glyph-name="asciicircum" horiz-adv-x="600" unicode="^" d="M222 694h156l175 -365h-140l-113 239l-113 -239h-140z"/>
<glyph glyph-name="underscore" horiz-adv-x="500" unicode="_" d="M0 -75h500v-50h-500v50z"/>
<glyph glyph-name="grave" horiz-adv-x="260" unicode="`" d="M1 737h168l44 -146h-116z"/>
<glyph glyph-name="a" horiz-adv-x="500" unicode="a" d="M299 0q-5 14 -7 29t-4 32h-2q-15 -36 -47.5 -55.5t-74.5 -19.5q-41 0 -69.5 12t-46.5 33t-26 50t-8 64q0 37 7.5 65.5t24.5 49t46 35t72 24.5l71 17q29 7 41 20.5t12 38.5q0 50 -46 50q-26 0 -38 -14.5t-13 -57.5h-156q0 58 21 94t52 55.5t67 26t67 6.5q47 0 86.5 -7.5 t68 -27t44 -53.5t15.5 -86v-264q0 -38 3 -67t14 -50h-174zM232 107q30 0 43 22t13 67v65h-2q-8 -11 -24.5 -13.5t-36.5 -11.5q-21 -10 -29 -26.5t-8 -43.5t12 -43t32 -16z"/>
<glyph glyph-name="b" d="M39 714h180v-234h2q14 42 44.5 58.5t68.5 16.5q39 0 70 -13.5t52 -45t32.5 -84t11.5 -130.5q0 -150 -36 -223t-126 -73q-48 0 -77 21.5t-46 66.5h-2v-74h-174v714zM219 270q0 -44 2 -72.5t7.5 -46t15.5 -24.5t25 -7q16 0 26 7t15.5 24.5t7.5 46t2 72.5t-2 73t-7.5 46.5 t-15.5 24.5t-26 7q-15 0 -25 -7t-15.5 -24.5t-7.5 -46.5t-2 -73z" unicode="b"/>
<glyph glyph-name="c" horiz-adv-x="481" unicode="c" d="M305 329q0 33 -3 53.5t-9 33.5q-11 23 -40 23q-15 0 -25.5 -7.5t-16.5 -27t-8.5 -52t-2.5 -82.5t2.5 -82.5t8.5 -51.5t16.5 -26.5t25.5 -7.5q25 0 38.5 19t13.5 70v35h162q0 -64 -11 -109t-37 -74q-51 -57 -166 -57q-52 0 -95 10t-73.5 40t-47.5 84t-17 141q0 96 19 154 t51.5 89t76.5 41t95 10q60 0 99.5 -16.5t63 -46t33 -71t9.5 -92.5h-162z"/>
<glyph glyph-name="d" d="M301 714h180v-714h-174v74h-2q-17 -45 -46 -66.5t-77 -21.5q-90 0 -126 73t-36 223q0 76 12 128.5t33.5 84.5t52 46t68.5 14t68.5 -16.5t44.5 -58.5h2v234zM200 270q0 -44 2 -72.5t7.5 -46t15.5 -24.5t26 -7q15 0 25 7t15.5 24.5t7.5 46t2 72.5t-2 73t-7.5 46.5 t-15.5 24.5t-25 7q-16 0 -26 -7t-15.5 -24.5t-7.5 -46.5t-2 -73z" unicode="d"/>
<glyph glyph-name="e" horiz-adv-x="481" unicode="e" d="M200 240v-71q0 -44 15 -58.5t34 -14.5q12 0 21.5 4.5t16 15t10 28.5t3.5 46h162q-2 -100 -51 -152t-161 -52q-65 0 -109 15.5t-71 49.5t-38.5 88t-11.5 131q0 78 13 132t41 88t71.5 49.5t104.5 15.5q54 0 94.5 -13t68 -43.5t41 -80.5t13.5 -123v-55h-267zM299 362 q0 43 -10.5 63t-39.5 20q-28 0 -38.5 -20t-10.5 -63v-24h99v24z"/>
<glyph glyph-name="f" horiz-adv-x="315" unicode="f" d="M62 420h-62v121h62v39q0 40 8.5 68.5t28 46t51.5 25.5t79 8q20 0 42.5 -1.5t43.5 -4.5v-113q-7 2 -13.5 2.5t-16.5 0.5q-17 0 -30 -9t-13 -29v-33h73v-121h-73v-420h-180v420z"/>
<glyph glyph-name="g" d="M205 285q0 -43 3.5 -69.5t10 -41.5t16 -20t22.5 -5q12 0 21.5 5t16 20t9.5 41.5t3 69.5q0 42 -3 68.5t-9.5 41.5t-16 20.5t-21.5 5.5q-13 0 -22.5 -5.5t-16 -20.5t-10 -41.5t-3.5 -68.5zM313 541h168v-532q0 -56 -17.5 -93t-48 -59t-71.5 -31.5t-89 -9.5q-44 0 -81.5 6.5 t-66 23.5t-45 46.5t-17.5 75.5h162q0 -20 12 -31t33 -11q10 0 20 2t17.5 9t12.5 20t5 36v103h-2q-17 -47 -51 -64t-71 -17q-27 0 -55 10t-51 39t-37.5 81.5t-14.5 136.5q0 78 11.5 130.5t33 84t52.5 45t70 13.5q38 0 71 -20t48 -69h2v75z" unicode="g"/>
<glyph glyph-name="h" d="M36 714h180v-233h2q23 43 57.5 58.5t67.5 15.5q28 0 53.5 -7t45 -24t31 -45.5t11.5 -70.5v-408h-180v357q0 34 -10 49t-34 15t-34 -15t-10 -49v-357h-180v714z" unicode="h"/>
<glyph glyph-name="i" horiz-adv-x="258" unicode="i" d="M39 541h180v-541h-180v541zM39 714h180v-134h-180v134z"/>
<glyph glyph-name="j" horiz-adv-x="258" unicode="j" d="M39 541h180v-576q0 -47 -13 -75t-35.5 -42.5t-53 -19t-65.5 -4.5q-20 0 -40.5 1.5t-40.5 3.5v121q34 0 51 7t17 31v553zM39 714h180v-134h-180v134z"/>
<glyph glyph-name="k" horiz-adv-x="500" unicode="k" d="M31 714h180v-360h2l100 187h192l-150 -223l169 -318h-192l-91 186l-30 -47v-139h-180v714z"/>
<glyph glyph-name="l" horiz-adv-x="258" unicode="l" d="M39 714h180v-714h-180v714z"/>
<glyph glyph-name="m" horiz-adv-x="778" unicode="m" d="M299 357q0 34 -10 49t-34 15t-34 -15t-10 -49v-357h-180v541h174v-66h2q35 80 131 80q56 0 85.5 -20.5t46.5 -62.5q21 46 57.5 64.5t78.5 18.5q30 0 55.5 -6.5t44.5 -23.5t30 -45.5t11 -71.5v-408h-180v357q0 34 -10 49t-34 15t-34 -15t-10 -49v-357h-180v357z"/>
<glyph glyph-name="n" d="M36 541h174v-66h2q35 80 131 80q30 0 55.5 -6.5t44.5 -23.5t30 -45.5t11 -71.5v-408h-180v357q0 34 -10 49t-34 15t-34 -15t-10 -49v-357h-180v541z" unicode="n"/>
<glyph glyph-name="o" horiz-adv-x="500" unicode="o" d="M480 270q0 -53 -7.5 -104t-31.5 -91t-69.5 -64.5t-121.5 -24.5q-79 0 -125 22.5t-69 61.5t-29.5 90.5t-6.5 110.5q0 53 7.5 104t31.5 91t69.5 64.5t121.5 24.5q79 0 125 -22.5t69 -61.5t29.5 -91t6.5 -110zM200 270q0 -51 2 -83.5t8 -51.5t15.5 -26t24.5 -7t25 7t15.5 26 t7.5 51.5t2 83.5t-2 84t-7.5 52t-15.5 26t-25 7t-24.5 -7t-15.5 -26t-8 -52t-2 -84z"/>
<glyph glyph-name="p" d="M39 541h174v-74h2q31 88 123 88q90 0 126 -73t36 -223q0 -78 -12 -130t-33.5 -84t-52.5 -45.5t-68 -13.5q-38 0 -68.5 16.5t-44.5 58.5h-2v-237h-180v717zM219 271q0 -44 2 -73t7.5 -46.5t15.5 -24.5t25 -7q16 0 26 7t15.5 24.5t7.5 46.5t2 73q0 43 -2 72t-7.5 46.5 t-15.5 24.5t-26 7q-15 0 -25 -7t-15.5 -24.5t-7.5 -46.5t-2 -72z" unicode="p"/>
<glyph glyph-name="q" d="M301 61h-2q-14 -42 -44.5 -58.5t-68.5 -16.5q-39 0 -70 13.5t-52 45t-32.5 84t-11.5 130.5q0 150 36 223t126 73q48 0 77 -21.5t46 -66.5h2v74h174v-717h-180v237zM301 271q0 43 -2 72t-7.5 46.5t-15.5 24.5t-25 7q-16 0 -26 -7t-15.5 -24.5t-7.5 -46.5t-2 -72 q0 -44 2 -73t7.5 -46.5t15.5 -24.5t26 -7q15 0 25 7t15.5 24.5t7.5 46.5t2 73z" unicode="q"/>
<glyph glyph-name="r" horiz-adv-x="352" unicode="r" d="M31 541h174v-86h2q15 49 48 74.5t73 25.5h29v-168q-12 2 -23 3t-22 1q-48 0 -74.5 -21t-26.5 -75v-295h-180v541z"/>
<glyph glyph-name="s" horiz-adv-x="463" unicode="s" d="M175 168q0 -16 3 -30t10 -23q13 -19 38 -19q21 0 36.5 12t15.5 34q0 24 -19.5 37t-48.5 23t-62.5 21t-62.5 30t-48.5 50.5t-19.5 82.5q0 36 13 66.5t39.5 53.5t67 36t95.5 13q203 0 203 -170h-156q0 35 -12.5 47.5t-35.5 12.5q-20 0 -33 -11t-13 -31q0 -23 19.5 -34.5 t48.5 -20.5t62.5 -19t62.5 -28.5t48.5 -50t19.5 -83.5q0 -39 -15 -72.5t-42.5 -57.5t-68 -37.5t-91.5 -13.5q-113 0 -162.5 46.5t-49.5 135.5h158z"/>
<glyph glyph-name="t" horiz-adv-x="315" unicode="t" d="M2 541h60v159h180v-159h71v-121h-71v-258q0 -23 10.5 -32.5t32.5 -9.5h28v-120q-50 -6 -98 -6q-41 0 -70 4.5t-47.5 19.5t-27 42t-8.5 72v288h-60v121z"/>
<glyph glyph-name="u" d="M36 541h180v-357q0 -34 10 -49t34 -15t34 15t10 49v357h180v-541h-174v66h-2q-35 -80 -131 -80q-30 0 -55.5 6.5t-44.5 23.5t-30 45t-11 72v408z" unicode="u"/>
<glyph glyph-name="v" horiz-adv-x="463" unicode="v" d="M-6 541h186l51 -389h2l50 389h186l-132 -541h-212z"/>
<glyph glyph-name="w" horiz-adv-x="740" unicode="w" d="M0 541h174l45 -389h2l53 389h192l53 -389h2l45 389h174l-110 -541h-204l-55 383h-2l-55 -383h-204z"/>
<glyph glyph-name="x" horiz-adv-x="481" unicode="x" d="M2 541h180l54 -145l62 145h180l-136 -262l143 -279h-180l-63 163l-66 -163h-180l143 279z"/>
<glyph glyph-name="y" horiz-adv-x="463" unicode="y" d="M50 -46q10 -2 20 -3t20 -1q17 0 28.5 5t18.5 11.5t10 13.5t3 11q0 6 -2.5 17.5t-5.5 22.5l-143 510h186l55 -365h2l52 365h180l-145 -559q-12 -47 -27.5 -77.5t-37 -48.5t-49.5 -25t-64 -7q-29 0 -53.5 1t-47.5 3v126z"/>
<glyph glyph-name="z" horiz-adv-x="444" unicode="z" d="M23 541h402v-134l-202 -267h207v-140h-416v140l194 261h-185v140z"/>
<glyph glyph-name="braceleft" horiz-adv-x="333" unicode="{" d="M63 131q0 22 -7.5 35.5t-18 20.5t-22 9t-20.5 2v134q9 0 20.5 1.5t22 7.5t18 17.5t7.5 31.5v187q0 69 38.5 103t111.5 34h120v-126h-56q-16 0 -25 -6t-13.5 -15t-6 -20t-1.5 -21v-168q0 -28 -12 -45.5t-29 -27.5t-35.5 -14t-31.5 -5v-2q13 -1 31.5 -4t35.5 -13.5t29 -30 t12 -53.5v-159q0 -10 1.5 -21t6 -20t13.5 -15t25 -6h56v-126h-120q-73 0 -111.5 34t-38.5 103v178z"/>
<glyph glyph-name="bar" horiz-adv-x="222" unicode="|" d="M41 728h140v-742h-140v742z"/>
<glyph glyph-name="braceright" horiz-adv-x="333" unicode="}" d="M0 -58h56q16 0 25 6t13.5 15t6 20t1.5 21v168q0 28 12 45.5t29 27.5t35.5 14t31.5 5v2q-13 1 -31.5 4t-35.5 13.5t-29 30t-12 53.5v159q0 10 -1.5 21t-6 20t-13.5 15t-25 6h-56v126h120q73 0 111.5 -34t38.5 -103v-178q0 -23 7.5 -36t18 -20t22 -9t20.5 -2v-134 q-9 0 -20.5 -2t-22 -8t-18 -17.5t-7.5 -30.5v-187q0 -69 -38.5 -103t-111.5 -34h-120v126z"/>
<glyph glyph-name="asciitilde" horiz-adv-x="600" unicode="~" d="M69 271q17 38 48.5 62t76.5 24q28 0 57.5 -10.5t57 -23.5t53 -23.5t45.5 -10.5q25 0 46 19t42 52l36 -125q-26 -42 -57 -64t-68 -22q-30 0 -54.5 10.5t-49.5 23.5t-52 23.5t-61 10.5q-55 0 -84 -71z"/>
<glyph glyph-name="uni00A0" horiz-adv-x="260" unicode=" "/>
<glyph glyph-name="exclamdown" horiz-adv-x="314" unicode="¡" d="M72 544h168v-158h-168v158zM70 69l19 268h134l21 -268v-239h-174v239z"/>
<glyph glyph-name="cent" d="M229 -14q-102 9 -147 73q-23 34 -34 83t-11 116q0 80 13 134.5t37.5 88.5t60 51t81.5 23v76h80v-76q55 -5 89 -24t53 -48.5t25.5 -69t6.5 -84.5h-162q0 33 -3 53.5t-9 33.5q-11 23 -40 23q-15 0 -25 -7.5t-16 -27t-8.5 -52t-2.5 -82.5t2.5 -82.5t8.5 -51.5t16 -26.5 t25 -7.5q25 0 38.5 19t13.5 70v35h162q0 -64 -11 -109t-37 -74q-41 -45 -126 -57v-88h-80v88z" unicode="¢"/>
<glyph glyph-name="sterling" d="M12 398h68q-19 28 -31 61t-12 65q0 46 16.5 80.5t46 57.5t70 34.5t88.5 11.5q65 0 109.5 -13.5t71.5 -40t39.5 -64.5t13.5 -86h-162v16q0 39 -17 55.5t-40 16.5q-28 0 -42 -17.5t-14 -40.5q0 -26 13 -60t36 -76h171v-104h-138q2 -9 3.5 -16t1.5 -14q0 -32 -25 -68.5 t-68 -68.5l2 -2q18 7 33 7q14 0 27.5 -4t27 -8.5t26.5 -8.5t27 -4q19 0 42.5 9.5t61.5 29.5l50 -112q-37 -26 -77.5 -37t-83.5 -11q-23 0 -46.5 5.5t-46.5 12.5t-46.5 12.5t-46.5 5.5q-28 0 -55 -8.5t-53 -21.5l-41 105q22 15 42.5 34t36 40.5t24.5 45t9 48.5q0 7 -1.5 13.5 t-3.5 15.5h-107v104z" unicode="£"/>
<glyph glyph-name="currency" d="M9 174l52 51q-36 55 -36 122q0 35 10.5 66.5t27.5 59.5l-54 53l72 71l55 -51q55 36 124 36q68 0 124 -36l55 51l72 -71l-54 -53q17 -28 27.5 -59.5t10.5 -66.5q0 -67 -36 -122l52 -51l-72 -77l-52 54q-56 -39 -127 -39q-72 0 -127 39l-52 -54zM159 347q0 -54 26.5 -81.5 t74.5 -27.5t74.5 27.5t26.5 81.5t-26.5 81.5t-74.5 27.5t-74.5 -27.5t-26.5 -81.5z" unicode="¤"/>
<glyph glyph-name="yen" d="M170 123h-125v104h125v46l-6 17h-119v104h75l-125 300h192l72 -260h2l72 260h192l-125 -300h75v-104h-119l-6 -17v-46h125v-104h-125v-123h-180v123z" unicode="¥"/>
<glyph glyph-name="brokenbar" horiz-adv-x="222" unicode="¦" d="M41 276h140v-290h-140v290zM41 728h140v-290h-140v290z"/>
<glyph glyph-name="section" d="M317 552q0 37 -16 48.5t-37 11.5q-20 0 -33.5 -11.5t-13.5 -29.5q0 -23 21 -36.5t52.5 -25t68 -24.5t68 -35t52.5 -56.5t21 -89.5q0 -42 -17 -78.5t-55 -65.5q32 -25 43.5 -61t11.5 -74q0 -49 -17.5 -83t-48 -55.5t-72 -31t-89.5 -9.5q-106 0 -162 44t-57 138v16h168 q0 -45 13 -63.5t37 -18.5q26 0 37 16.5t11 39.5q0 30 -21 47t-52.5 29.5t-68 24.5t-68 33t-52.5 54.5t-21 88.5q0 43 23.5 84t59.5 60q-30 20 -45 52.5t-15 63.5q0 79 53.5 126t164.5 47q106 0 159 -38t53 -119v-19h-156zM317 216q28 20 35.5 35t7.5 32q0 22 -17.5 36 t-42 24.5t-51 19.5t-43.5 21q-26 -22 -36 -39.5t-10 -28.5q0 -14 8 -24.5t31 -21.5z" unicode="§"/>
<glyph glyph-name="dieresis" horiz-adv-x="260" unicode="¨" d="M-28 734h134v-140h-134v140zM154 734h134v-140h-134v140z"/>
<glyph glyph-name="copyright" horiz-adv-x="800" unicode="©" d="M591 299q-6 -38 -22 -66.5t-39.5 -48t-52.5 -29.5t-61 -10q-45 0 -82.5 16t-64.5 43.5t-41.5 65.5t-14.5 82q0 45 14 84.5t40 69t62 46t81 16.5q67 0 115 -37.5t60 -112.5h-104q-7 29 -25.5 43.5t-45.5 14.5q-45 0 -69 -32t-24 -86q0 -55 25.5 -88t70.5 -33q27 0 45.5 15 t22.5 47h110zM29 357q0 77 29 144.5t79.5 118t118 79.5t144.5 29t144.5 -29t118 -79.5t79.5 -118t29 -144.5t-29 -144.5t-79.5 -118t-118 -79.5t-144.5 -29t-144.5 29t-118 79.5t-79.5 118t-29 144.5zM157 357q0 -129 64 -195t179 -66t179 66t64 195t-64 195t-179 66 t-179 -66t-64 -195z"/>
<glyph glyph-name="ordfeminine" horiz-adv-x="352" unicode="ª" d="M24 604q0 35 12 56.5t32.5 33.5t47.5 16t57 4q48 0 78.5 -6t48 -18.5t24.5 -32t7 -47.5v-159q0 -23 2 -40t9 -31h-131q-4 9 -5 18t-3 20h-2q-9 -23 -30 -33q-21 -12 -48 -12q-32 0 -54 7t-35 19.5t-18.5 30t-5.5 38.5q0 23 5 39t18 27.5t35 20.5t55 17l46 11 q19 5 26.5 12.5t7.5 22.5q0 9 -7.5 15.5t-22.5 6.5q-17 0 -24.5 -8t-8.5 -28h-116zM203 539h-2q-5 -8 -15.5 -9.5t-23.5 -6.5q-14 -6 -19 -16t-5 -26q0 -11 7.5 -19.5t21.5 -8.5q20 0 28 13.5t8 40.5v32z"/>
<glyph glyph-name="guillemotleft" horiz-adv-x="444" unicode="«" d="M239 399l156 104v-158l-84 -56l84 -56v-158l-156 104v220zM49 399l156 104v-158l-84 -56l84 -56v-158l-156 104v220z"/>
<glyph glyph-name="logicalnot" horiz-adv-x="600" unicode="¬" d="M413 295h-366v140h506v-326h-140v186z"/>
<glyph glyph-name="uni00AD" horiz-adv-x="368" unicode="­" d="M28 365h312v-152h-312v152z"/>
<glyph glyph-name="registered" horiz-adv-x="800" unicode="®" d="M29 357q0 77 29 144.5t79.5 118t118 79.5t144.5 29t144.5 -29t118 -79.5t79.5 -118t29 -144.5t-29 -144.5t-79.5 -118t-118 -79.5t-144.5 -29t-144.5 29t-118 79.5t-79.5 118t-29 144.5zM157 357q0 -129 64 -195t179 -66t179 66t64 195t-64 195t-179 66t-179 -66 t-64 -195zM259 559h125q40 0 71.5 -6t53.5 -20t34 -37.5t12 -59.5q0 -27 -7.5 -46t-18.5 -31t-24 -18t-25 -7l85 -153h-102l-80 143h-32v-143h-92v378zM400 398q27 0 42 11t15 34q0 21 -15 31.5t-42 10.5h-49v-87h49z"/>
<glyph glyph-name="macron" horiz-adv-x="260" unicode="¯" d="M-28 713h316v-98h-316v98z"/>
<glyph glyph-name="degree" horiz-adv-x="400" unicode="°" d="M40 548q0 33 12.5 62t34.5 51t51 34.5t62 12.5t62 -12.5t51 -34.5t34.5 -51t12.5 -62t-12.5 -62t-34.5 -51t-51 -34.5t-62 -12.5t-62 12.5t-51 34.5t-34.5 51t-12.5 62zM132 548q0 -29 19.5 -48.5t48.5 -19.5t48.5 19.5t19.5 48.5t-19.5 48.5t-48.5 19.5t-48.5 -19.5 t-19.5 -48.5z"/>
<glyph glyph-name="plusminus" horiz-adv-x="600" unicode="±" d="M230 506h140v-88h183v-140h-183v-88h-140v88h-183v140h183v88zM47 140h506v-140h-506v140z"/>
<glyph glyph-name="twosuperior" horiz-adv-x="370" unicode="²" d="M19 556q0 39 5.5 66t22.5 46q17 20 48 30t88 10q52 0 85 -9t51.5 -25t25 -37.5t6.5 -45.5q0 -37 -16 -65.5t-42 -52.5l-71 -65l-17 -17t-13 -19h159v-92h-322q0 45 14.5 85.5t54.5 78.5l80 76q18 17 25.5 31.5t7.5 38.5q0 20 -9 29t-23 9q-11 0 -21.5 -10.5t-10.5 -47.5 v-14h-128z"/>
<glyph glyph-name="threesuperior" horiz-adv-x="370" unicode="³" d="M24 582q0 64 38 96q19 16 47 23t73 7q49 0 80 -8t49 -23t25 -37t7 -50q0 -26 -14 -52t-50 -34v-2q43 -6 59 -31.5t16 -60.5q0 -72 -39.5 -104.5t-129.5 -32.5q-45 0 -77 6.5t-52.5 22.5t-30 41.5t-9.5 63.5h128q0 -8 2.5 -19t7.5 -19q9 -16 27 -16q21 0 27 11.5t6 43.5 t-10.5 42.5t-33.5 10.5h-31v74h18q27 0 39.5 11t12.5 46q0 36 -30 36q-33 0 -33 -46h-122z"/>
<glyph glyph-name="acute" horiz-adv-x="260" unicode="´" d="M101 737h168l-96 -146h-116z"/>
<glyph glyph-name="mu" d="M36 541h180v-357q0 -34 10 -49t34 -15t34 15t10 49v357h180v-541h-174v66h-2q-16 -37 -35 -58.5t-42 -21.5q-9 0 -15 3v-165h-180v717z" unicode="µ"/>
<glyph glyph-name="paragraph" horiz-adv-x="666" unicode="¶" d="M206 330q-32 0 -63 12t-55.5 35.5t-39.5 59t-15 82.5q0 60 20.5 98t55.5 59.5t81.5 29.5t98.5 8h292v-854h-140v744h-95v-744h-140v470z"/>
<glyph glyph-name="periodcentered" horiz-adv-x="260" unicode="·" d="M31 274q0 42 28.5 70.5t70.5 28.5t70.5 -28.5t28.5 -70.5t-28.5 -70.5t-70.5 -28.5t-70.5 28.5t-28.5 70.5z"/>
<glyph glyph-name="cedilla" horiz-adv-x="260" unicode="¸" d="M172 0l-33 -60q15 5 35 5q36 0 61 -18.5t25 -60.5q0 -51 -35 -75t-95 -24q-29 0 -60 5.5t-54 14.5l22 56q33 -16 68 -16q23 0 36.5 10t13.5 24q0 20 -14 26t-27 6q-15 0 -31 -7l-25 21l55 93h58z"/>
<glyph glyph-name="onesuperior" horiz-adv-x="333" unicode="¹" d="M109 562h-87v80q28 0 48 3.5t34.5 11t24 20t16.5 31.5h104v-428h-140v282z"/>
<glyph glyph-name="ordmasculine" horiz-adv-x="352" unicode="º" d="M10 543q0 46 7.5 79t26.5 53t51 29.5t81 9.5t81 -9.5t51 -29.5t26.5 -53t7.5 -79q0 -47 -7.5 -79t-26.5 -52.5t-51 -29.5t-81 -9t-81 9t-51 29.5t-26.5 52.5t-7.5 79zM144 543q0 -53 6.5 -71.5t25.5 -18.5t25.5 18.5t6.5 71.5q0 54 -6 72.5t-26 18.5q-19 0 -25.5 -18.5 t-6.5 -72.5z"/>
<glyph glyph-name="guillemotright" horiz-adv-x="444" unicode="»" d="M49 233l84 56l-84 56v158l156 -104v-220l-156 -104v158zM239 233l84 56l-84 56v158l156 -104v-220l-156 -104v158z"/>
<glyph glyph-name="onequarter" horiz-adv-x="814" unicode="¼" d="M637 164v131h-2l-75 -131h77zM456 164l146 257h157v-257h40v-92h-40v-72h-122v72h-181v92zM533 725h110l-387 -756h-110zM97 562h-87v80q28 0 48 3.5t34.5 11t24 20t16.5 31.5h104v-428h-140v282z"/>
<glyph glyph-name="onehalf" horiz-adv-x="814" unicode="½" d="M499 725h110l-387 -756h-110zM97 562h-87v80q28 0 48 3.5t34.5 11t24 20t16.5 31.5h104v-428h-140v282zM471 276q0 39 5.5 66t22.5 46q17 20 48 30t88 10q52 0 85 -9t51.5 -25t25 -37.5t6.5 -45.5q0 -37 -16 -65.5t-42 -52.5l-71 -65l-17 -17t-13 -19h159v-92h-322 q0 45 14.5 85.5t54.5 78.5l80 76q18 17 25.5 31.5t7.5 38.5q0 20 -9 29t-23 9q-11 0 -21.5 -10.5t-10.5 -47.5v-14h-128z"/>
<glyph glyph-name="threequarters" horiz-adv-x="814" unicode="¾" d="M625 164v131h-2l-75 -131h77zM456 164l146 257h157v-257h40v-92h-40v-72h-122v72h-181v92zM570 725h110l-387 -756h-110zM23 582q0 64 38 96q19 16 47 23t73 7q49 0 80 -8t49 -23t25 -37t7 -50q0 -26 -14 -52t-50 -34v-2q43 -6 59 -31.5t16 -60.5q0 -72 -39.5 -104.5 t-129.5 -32.5q-45 0 -77 6.5t-52.5 22.5t-30 41.5t-9.5 63.5h128q0 -8 2.5 -19t7.5 -19q9 -16 27 -16q21 0 27 11.5t6 43.5t-10.5 42.5t-33.5 10.5h-31v74h18q27 0 39.5 11t12.5 46q0 36 -30 36q-33 0 -33 -46h-122z"/>
<glyph glyph-name="questiondown" horiz-adv-x="500" unicode="¿" d="M468 56q0 -66 -14.5 -112t-42.5 -74q-29 -29 -70.5 -41.5t-96.5 -12.5q-109 0 -160.5 54t-51.5 144q0 42 10.5 77.5t36.5 64.5l73 83q14 16 18.5 41t4.5 57h162v-28q0 -57 -9 -92.5t-34 -64.5l-59 -67q-20 -23 -24.5 -46.5t-4.5 -41.5q0 -29 11 -47t34 -18q12 0 21 4.5 t15 17.5t9.5 37.5t3.5 64.5h168zM172 544h168v-158h-168v158z"/>
<glyph glyph-name="Agrave" horiz-adv-x="556" unicode="À" d="M161 714h234l174 -714h-198l-19 125h-148l-19 -125h-198zM279 568h-2l-51 -303h104zM134 911h168l44 -146h-116z"/>
<glyph glyph-name="Aacute" horiz-adv-x="556" unicode="Á" d="M161 714h234l174 -714h-198l-19 125h-148l-19 -125h-198zM279 568h-2l-51 -303h104zM252 911h168l-96 -146h-116z"/>
<glyph glyph-name="Acircumflex" horiz-adv-x="556" unicode="Â" d="M161 714h234l174 -714h-198l-19 125h-148l-19 -125h-198zM279 568h-2l-51 -303h104zM181 911h192l62 -146h-122l-36 80l-36 -80h-122z"/>
<glyph glyph-name="Atilde" horiz-adv-x="556" unicode="Ã" d="M161 714h234l174 -714h-198l-19 125h-148l-19 -125h-198zM279 568h-2l-51 -303h104zM442 908q-8 -75 -36 -107.5t-64 -32.5q-20 0 -37.5 4.5t-32.5 10.5t-27.5 10.5t-23.5 4.5t-17 -8.5t-6 -21.5h-86q9 69 32 104.5t66 35.5q16 0 32.5 -4.5t32.5 -10.5q16 -5 29.5 -10 t24.5 -5t18 6.5t9 23.5h86z"/>
<glyph glyph-name="Adieresis" horiz-adv-x="556" unicode="Ä" d="M161 714h234l174 -714h-198l-19 125h-148l-19 -125h-198zM279 568h-2l-51 -303h104zM119 908h134v-140h-134v140zM301 908h134v-140h-134v140z"/>
<glyph glyph-name="Aring" horiz-adv-x="556" unicode="Å" d="M161 714h234l174 -714h-198l-19 125h-148l-19 -125h-198zM279 568h-2l-51 -303h104zM166 844q0 23 9 43t24 34.5t35 22.5t43 8q22 0 42.5 -8t35.5 -22.5t24 -34.5t9 -43t-9 -43t-24 -34.5t-35.5 -22.5t-42.5 -8q-48 0 -79.5 30t-31.5 78zM232 844q0 -19 13 -32t32 -13 t32 13t13 32t-13 32t-32 13t-32 -13t-13 -32z"/>
<glyph glyph-name="AE" horiz-adv-x="778" unicode="Æ" d="M365 265v323h-2l-99 -323h101zM257 714h494v-152h-212v-122h196v-146h-196v-142h223v-152h-397v119h-144l-36 -119h-198z"/>
<glyph glyph-name="Ccedilla" horiz-adv-x="537" unicode="Ç" d="M329 497q0 61 -12 83t-39 22q-21 0 -33.5 -11t-19 -39t-8.5 -75.5t-2 -119.5t2 -119.5t8.5 -75.5t19 -39t33.5 -11q17 0 28 8.5t17 28.5t8.5 53.5t2.5 84.5h180v-53q0 -56 -11.5 -97t-31.5 -69.5t-47.5 -46t-58.5 -24.5q-32 -8 -69 -10l-25 -47q15 5 35 5q36 0 61 -18.5 t25 -60.5q0 -51 -35 -75t-95 -24q-29 0 -60 5.5t-54 14.5l22 56q33 -16 68 -16q23 0 36.5 10t13.5 24q0 20 -14 26t-27 6q-15 0 -31 -7l-25 21l47 81q-52 4 -88 18q-38 16 -62.5 45t-39 72t-20 101t-5.5 133q0 102 12.5 173t42.5 115t79 63.5t121 19.5q63 0 107 -16 t71.5 -45.5t40 -71t12.5 -93.5v-45h-180v40z"/>
<glyph glyph-name="Egrave" horiz-adv-x="500" unicode="È" d="M44 714h423v-152h-237v-122h222v-146h-222v-142h246v-152h-432v714zM137 911h168l44 -146h-116z"/>
<glyph glyph-name="Eacute" horiz-adv-x="500" unicode="É" d="M44 714h423v-152h-237v-122h222v-146h-222v-142h246v-152h-432v714zM237 911h168l-96 -146h-116z"/>
<glyph glyph-name="Ecircumflex" horiz-adv-x="500" unicode="Ê" d="M44 714h423v-152h-237v-122h222v-146h-222v-142h246v-152h-432v714zM160 911h192l62 -146h-122l-36 80l-36 -80h-122z"/>
<glyph glyph-name="Edieresis" horiz-adv-x="500" unicode="Ë" d="M44 714h423v-152h-237v-122h222v-146h-222v-142h246v-152h-432v714zM97 908h134v-140h-134v140zM279 908h134v-140h-134v140z"/>
<glyph glyph-name="Igrave" horiz-adv-x="260" unicode="Ì" d="M37 714h186v-714h-186v714zM9 911h168l44 -146h-116z"/>
<glyph glyph-name="Iacute" horiz-adv-x="260" unicode="Í" d="M37 714h186v-714h-186v714zM84 911h168l-96 -146h-116z"/>
<glyph glyph-name="Icircumflex" horiz-adv-x="260" unicode="Î" d="M37 714h186v-714h-186v714zM34 911h192l62 -146h-122l-36 80l-36 -80h-122z"/>
<glyph glyph-name="Idieresis" horiz-adv-x="260" unicode="Ï" d="M37 714h186v-714h-186v714zM-27 908h134v-140h-134v140zM155 908h134v-140h-134v140z"/>
<glyph glyph-name="Eth" horiz-adv-x="574" unicode="Ð" d="M44 308h-53v126h53v280h270q81 0 126 -29.5t67.5 -79t27.5 -114t5 -134.5t-5 -134.5t-27.5 -114t-67.5 -79t-126 -29.5h-270v308zM282 434v-126h-52v-174h37q27 0 43 7.5t24.5 31.5t11 68t2.5 116t-2.5 116t-11 68t-24.5 31.5t-43 7.5h-37v-146h52z"/>
<glyph glyph-name="Ntilde" horiz-adv-x="592" unicode="Ñ" d="M44 714h208l120 -440h2v440h174v-714h-204l-124 441h-2v-441h-174v714zM464 908q-8 -75 -36 -107.5t-64 -32.5q-20 0 -37.5 4.5t-32.5 10.5t-27.5 10.5t-23.5 4.5t-17 -8.5t-6 -21.5h-86q9 69 32 104.5t66 35.5q16 0 32.5 -4.5t32.5 -10.5q16 -5 29.5 -10t24.5 -5t18 6.5 t9 23.5h86z"/>
<glyph glyph-name="Ograve" horiz-adv-x="556" unicode="Ò" d="M23 357q0 100 13 170.5t43 115t79 65t120 20.5t120 -20.5t79 -65t43 -115t13 -170.5t-13 -170.5t-43 -115t-79 -65t-120 -20.5t-120 20.5t-79 65t-43 115t-13 170.5zM215 357q0 -72 2 -119.5t8.5 -75.5t19 -39t33.5 -11t33.5 11t19 39t8.5 75.5t2 119.5t-2 119.5 t-8.5 75.5t-19 39t-33.5 11t-33.5 -11t-19 -39t-8.5 -75.5t-2 -119.5zM135 911h168l44 -146h-116z"/>
<glyph glyph-name="Oacute" horiz-adv-x="556" unicode="Ó" d="M23 357q0 100 13 170.5t43 115t79 65t120 20.5t120 -20.5t79 -65t43 -115t13 -170.5t-13 -170.5t-43 -115t-79 -65t-120 -20.5t-120 20.5t-79 65t-43 115t-13 170.5zM215 357q0 -72 2 -119.5t8.5 -75.5t19 -39t33.5 -11t33.5 11t19 39t8.5 75.5t2 119.5t-2 119.5 t-8.5 75.5t-19 39t-33.5 11t-33.5 -11t-19 -39t-8.5 -75.5t-2 -119.5zM262 911h168l-96 -146h-116z"/>
<glyph glyph-name="Ocircumflex" horiz-adv-x="556" unicode="Ô" d="M23 357q0 100 13 170.5t43 115t79 65t120 20.5t120 -20.5t79 -65t43 -115t13 -170.5t-13 -170.5t-43 -115t-79 -65t-120 -20.5t-120 20.5t-79 65t-43 115t-13 170.5zM215 357q0 -72 2 -119.5t8.5 -75.5t19 -39t33.5 -11t33.5 11t19 39t8.5 75.5t2 119.5t-2 119.5 t-8.5 75.5t-19 39t-33.5 11t-33.5 -11t-19 -39t-8.5 -75.5t-2 -119.5zM183 911h192l62 -146h-122l-36 80l-36 -80h-122z"/>
<glyph glyph-name="Otilde" horiz-adv-x="556" unicode="Õ" d="M23 357q0 100 13 170.5t43 115t79 65t120 20.5t120 -20.5t79 -65t43 -115t13 -170.5t-13 -170.5t-43 -115t-79 -65t-120 -20.5t-120 20.5t-79 65t-43 115t-13 170.5zM215 357q0 -72 2 -119.5t8.5 -75.5t19 -39t33.5 -11t33.5 11t19 39t8.5 75.5t2 119.5t-2 119.5 t-8.5 75.5t-19 39t-33.5 11t-33.5 -11t-19 -39t-8.5 -75.5t-2 -119.5zM442 908q-8 -75 -36 -107.5t-64 -32.5q-20 0 -37.5 4.5t-32.5 10.5t-27.5 10.5t-23.5 4.5t-17 -8.5t-6 -21.5h-86q9 69 32 104.5t66 35.5q16 0 32.5 -4.5t32.5 -10.5q16 -5 29.5 -10t24.5 -5t18 6.5 t9 23.5h86z"/>
<glyph glyph-name="Odieresis" horiz-adv-x="556" unicode="Ö" d="M23 357q0 100 13 170.5t43 115t79 65t120 20.5t120 -20.5t79 -65t43 -115t13 -170.5t-13 -170.5t-43 -115t-79 -65t-120 -20.5t-120 20.5t-79 65t-43 115t-13 170.5zM215 357q0 -72 2 -119.5t8.5 -75.5t19 -39t33.5 -11t33.5 11t19 39t8.5 75.5t2 119.5t-2 119.5 t-8.5 75.5t-19 39t-33.5 11t-33.5 -11t-19 -39t-8.5 -75.5t-2 -119.5zM120 908h134v-140h-134v140zM302 908h134v-140h-134v140z"/>
<glyph glyph-name="multiply" horiz-adv-x="600" unicode="×" d="M58 396l99 99l143 -143l143 143l99 -99l-143 -143l143 -143l-99 -99l-143 143l-143 -143l-99 99l143 143z"/>
<glyph glyph-name="Oslash" horiz-adv-x="556" unicode="Ø" d="M325 569q-7 18 -18.5 25.5t-28.5 7.5q-21 0 -33.5 -11t-19 -39t-8.5 -75.5t-2 -119.5v-64h2zM231 146q7 -19 18.5 -26.5t28.5 -7.5q21 0 33.5 11t19 39t8.5 75.5t2 119.5v64h-2zM114 35q-51 40 -71 118t-20 204q0 100 13 170.5t43 115t79 65t120 20.5q57 0 104 -14l23 58 l64 -25l-26 -66q49 -42 69.5 -119.5t20.5 -204.5q0 -100 -13 -170.5t-43 -115t-79 -65t-120 -20.5q-57 0 -104 14l-23 -58l-64 25z"/>
<glyph glyph-name="Ugrave" horiz-adv-x="556" unicode="Ù" d="M222 714v-515q0 -52 15 -69.5t41 -17.5t41 17.5t15 69.5v515h186v-468q0 -75 -16 -125t-46.5 -80t-76 -42.5t-103.5 -12.5q-59 0 -104 12.5t-75.5 42.5t-46.5 80t-16 125v468h186zM146 911h168l44 -146h-116z"/>
<glyph glyph-name="Uacute" horiz-adv-x="556" unicode="Ú" d="M222 714v-515q0 -52 15 -69.5t41 -17.5t41 17.5t15 69.5v515h186v-468q0 -75 -16 -125t-46.5 -80t-76 -42.5t-103.5 -12.5q-59 0 -104 12.5t-75.5 42.5t-46.5 80t-16 125v468h186zM263 911h168l-96 -146h-116z"/>
<glyph glyph-name="Ucircumflex" horiz-adv-x="556" unicode="Û" d="M222 714v-515q0 -52 15 -69.5t41 -17.5t41 17.5t15 69.5v515h186v-468q0 -75 -16 -125t-46.5 -80t-76 -42.5t-103.5 -12.5q-59 0 -104 12.5t-75.5 42.5t-46.5 80t-16 125v468h186zM183 911h192l62 -146h-122l-36 80l-36 -80h-122z"/>
<glyph glyph-name="Udieresis" horiz-adv-x="556" unicode="Ü" d="M222 714v-515q0 -52 15 -69.5t41 -17.5t41 17.5t15 69.5v515h186v-468q0 -75 -16 -125t-46.5 -80t-76 -42.5t-103.5 -12.5q-59 0 -104 12.5t-75.5 42.5t-46.5 80t-16 125v468h186zM120 908h134v-140h-134v140zM302 908h134v-140h-134v140z"/>
<glyph glyph-name="Yacute" d="M167 281l-182 433h204l70 -249h2l70 249h204l-182 -433v-281h-186v281zM244 911h168l-96 -146h-116z" unicode="Ý"/>
<glyph glyph-name="Thorn" horiz-adv-x="537" unicode="Þ" d="M37 714h186v-120h93q53 0 92 -17t64.5 -46.5t37.5 -70t12 -86.5q0 -111 -59.5 -166.5t-174.5 -55.5h-65v-152h-186v714zM223 286h35q35 0 53.5 21t18.5 66q0 87 -72 87h-35v-174z"/>
<glyph glyph-name="germandbls" d="M31 0v510q0 61 15 103t45 67.5t74 36.5t103 11q218 0 218 -188q0 -24 -5.5 -47.5t-17 -42t-28.5 -31t-41 -15.5v-2q32 -5 52.5 -21.5t32.5 -41.5t16.5 -55.5t4.5 -62.5q0 -62 -10 -105t-32 -70t-57.5 -39.5t-86.5 -12.5q-19 0 -36.5 1t-35.5 5v121l12 -4t13 -2q14 0 24 5 t16.5 18.5t9.5 37t3 61.5q0 54 -13.5 75.5t-42.5 21.5h-20v121h15q26 0 36.5 19t10.5 53q0 42 -14 61t-38 19t-36.5 -17.5t-12.5 -56.5v-533h-174z" unicode="ß"/>
<glyph glyph-name="agrave" horiz-adv-x="500" unicode="à" d="M299 0q-5 14 -7 29t-4 32h-2q-15 -36 -47.5 -55.5t-74.5 -19.5q-41 0 -69.5 12t-46.5 33t-26 50t-8 64q0 37 7.5 65.5t24.5 49t46 35t72 24.5l71 17q29 7 41 20.5t12 38.5q0 50 -46 50q-26 0 -38 -14.5t-13 -57.5h-156q0 58 21 94t52 55.5t67 26t67 6.5q47 0 86.5 -7.5 t68 -27t44 -53.5t15.5 -86v-264q0 -38 3 -67t14 -50h-174zM232 107q30 0 43 22t13 67v65h-2q-8 -11 -24.5 -13.5t-36.5 -11.5q-21 -10 -29 -26.5t-8 -43.5t12 -43t32 -16zM124 737h168l44 -146h-116z"/>
<glyph glyph-name="aacute" horiz-adv-x="500" unicode="á" d="M299 0q-5 14 -7 29t-4 32h-2q-15 -36 -47.5 -55.5t-74.5 -19.5q-41 0 -69.5 12t-46.5 33t-26 50t-8 64q0 37 7.5 65.5t24.5 49t46 35t72 24.5l71 17q29 7 41 20.5t12 38.5q0 50 -46 50q-26 0 -38 -14.5t-13 -57.5h-156q0 58 21 94t52 55.5t67 26t67 6.5q47 0 86.5 -7.5 t68 -27t44 -53.5t15.5 -86v-264q0 -38 3 -67t14 -50h-174zM232 107q30 0 43 22t13 67v65h-2q-8 -11 -24.5 -13.5t-36.5 -11.5q-21 -10 -29 -26.5t-8 -43.5t12 -43t32 -16zM223 737h168l-96 -146h-116z"/>
<glyph glyph-name="acircumflex" horiz-adv-x="500" unicode="â" d="M299 0q-5 14 -7 29t-4 32h-2q-15 -36 -47.5 -55.5t-74.5 -19.5q-41 0 -69.5 12t-46.5 33t-26 50t-8 64q0 37 7.5 65.5t24.5 49t46 35t72 24.5l71 17q29 7 41 20.5t12 38.5q0 50 -46 50q-26 0 -38 -14.5t-13 -57.5h-156q0 58 21 94t52 55.5t67 26t67 6.5q47 0 86.5 -7.5 t68 -27t44 -53.5t15.5 -86v-264q0 -38 3 -67t14 -50h-174zM232 107q30 0 43 22t13 67v65h-2q-8 -11 -24.5 -13.5t-36.5 -11.5q-21 -10 -29 -26.5t-8 -43.5t12 -43t32 -16zM154 737h192l62 -146h-122l-36 80l-36 -80h-122z"/>
<glyph glyph-name="atilde" horiz-adv-x="500" unicode="ã" d="M299 0q-5 14 -7 29t-4 32h-2q-15 -36 -47.5 -55.5t-74.5 -19.5q-41 0 -69.5 12t-46.5 33t-26 50t-8 64q0 37 7.5 65.5t24.5 49t46 35t72 24.5l71 17q29 7 41 20.5t12 38.5q0 50 -46 50q-26 0 -38 -14.5t-13 -57.5h-156q0 58 21 94t52 55.5t67 26t67 6.5q47 0 86.5 -7.5 t68 -27t44 -53.5t15.5 -86v-264q0 -38 3 -67t14 -50h-174zM232 107q30 0 43 22t13 67v65h-2q-8 -11 -24.5 -13.5t-36.5 -11.5q-21 -10 -29 -26.5t-8 -43.5t12 -43t32 -16zM413 734q-8 -75 -36 -107.5t-64 -32.5q-20 0 -37.5 4.5t-32.5 10.5t-27.5 10.5t-23.5 4.5t-17 -8.5 t-6 -21.5h-86q9 69 32 104.5t66 35.5q16 0 32.5 -4.5t32.5 -10.5q16 -5 29.5 -10t24.5 -5t18 6.5t9 23.5h86z"/>
<glyph glyph-name="adieresis" horiz-adv-x="500" unicode="ä" d="M299 0q-5 14 -7 29t-4 32h-2q-15 -36 -47.5 -55.5t-74.5 -19.5q-41 0 -69.5 12t-46.5 33t-26 50t-8 64q0 37 7.5 65.5t24.5 49t46 35t72 24.5l71 17q29 7 41 20.5t12 38.5q0 50 -46 50q-26 0 -38 -14.5t-13 -57.5h-156q0 58 21 94t52 55.5t67 26t67 6.5q47 0 86.5 -7.5 t68 -27t44 -53.5t15.5 -86v-264q0 -38 3 -67t14 -50h-174zM232 107q30 0 43 22t13 67v65h-2q-8 -11 -24.5 -13.5t-36.5 -11.5q-21 -10 -29 -26.5t-8 -43.5t12 -43t32 -16zM91 734h134v-140h-134v140zM273 734h134v-140h-134v140z"/>
<glyph glyph-name="aring" horiz-adv-x="500" unicode="å" d="M299 0q-5 14 -7 29t-4 32h-2q-15 -36 -47.5 -55.5t-74.5 -19.5q-41 0 -69.5 12t-46.5 33t-26 50t-8 64q0 37 7.5 65.5t24.5 49t46 35t72 24.5l71 17q29 7 41 20.5t12 38.5q0 50 -46 50q-26 0 -38 -14.5t-13 -57.5h-156q0 58 21 94t52 55.5t67 26t67 6.5q47 0 86.5 -7.5 t68 -27t44 -53.5t15.5 -86v-264q0 -38 3 -67t14 -50h-174zM232 107q30 0 43 22t13 67v65h-2q-8 -11 -24.5 -13.5t-36.5 -11.5q-21 -10 -29 -26.5t-8 -43.5t12 -43t32 -16zM137 690q0 23 9 43t24 34.5t35 22.5t43 8q22 0 42.5 -8t35.5 -22.5t24 -34.5t9 -43t-9 -43t-24 -34.5 t-35.5 -22.5t-42.5 -8q-48 0 -79.5 30t-31.5 78zM203 690q0 -19 13 -32t32 -13t32 13t13 32t-13 32t-32 13t-32 -13t-13 -32z"/>
<glyph glyph-name="ae" horiz-adv-x="740" unicode="æ" d="M559 362q0 43 -10.5 63t-39.5 20q-27 0 -37.5 -20t-10.5 -63v-24h98v24zM41 373q0 58 18 94t47.5 55.5t66.5 26t75 6.5q36 0 75 -15t65 -45q23 32 55.5 46t85.5 14q51 0 88 -13t61.5 -43.5t36.5 -80.5t12 -123v-55h-266v-71q0 -44 15 -58.5t33 -14.5q12 0 21.5 4.5 t15.5 15t9.5 28.5t3.5 46h162q-1 -49 -12.5 -87t-37.5 -64q-53 -53 -149 -53q-44 0 -74.5 5.5t-52 17t-36 29t-25.5 40.5q-28 -54 -67.5 -73t-96.5 -19q-41 0 -69.5 12t-46.5 33t-26 50t-8 64q0 37 7.5 65.5t24.5 49t46 35t72 24.5l71 17q29 7 40.5 20.5t11.5 38.5 q0 50 -45 50q-26 0 -38 -14.5t-13 -57.5h-156zM293 261h-2q-7 -11 -23.5 -13.5t-36.5 -11.5q-21 -10 -29 -26.5t-8 -43.5t12 -43t32 -16q29 0 42 22t13 67v65z"/>
<glyph glyph-name="ccedilla" horiz-adv-x="481" unicode="ç" d="M305 329q0 33 -3 53.5t-9 33.5q-11 23 -40 23q-15 0 -25.5 -7.5t-16.5 -27t-8.5 -52t-2.5 -82.5t2.5 -82.5t8.5 -51.5t16.5 -26.5t25.5 -7.5q25 0 38.5 19t13.5 70v35h162q0 -64 -11 -109t-37 -74q-46 -51 -149 -56l-25 -47q15 5 35 5q36 0 61 -18.5t25 -60.5 q0 -51 -35 -75t-95 -24q-29 0 -60 5.5t-54 14.5l22 56q33 -16 68 -16q23 0 36.5 10t13.5 24q0 20 -14 26t-27 6q-15 0 -31 -7l-25 21l47 81q-26 1 -54 8q-32 7 -57.5 25.5t-43.5 50t-27.5 78t-9.5 111.5q0 96 19 154t51.5 89t76.5 41t95 10q60 0 99.5 -16.5t63 -46t33 -71 t9.5 -92.5h-162z"/>
<glyph glyph-name="egrave" horiz-adv-x="481" unicode="è" d="M200 240v-71q0 -44 15 -58.5t34 -14.5q12 0 21.5 4.5t16 15t10 28.5t3.5 46h162q-2 -100 -51 -152t-161 -52q-65 0 -109 15.5t-71 49.5t-38.5 88t-11.5 131q0 78 13 132t41 88t71.5 49.5t104.5 15.5q54 0 94.5 -13t68 -43.5t41 -80.5t13.5 -123v-55h-267zM299 362 q0 43 -10.5 63t-39.5 20q-28 0 -38.5 -20t-10.5 -63v-24h99v24zM111 737h168l44 -146h-116z"/>
<glyph glyph-name="eacute" horiz-adv-x="481" unicode="é" d="M200 240v-71q0 -44 15 -58.5t34 -14.5q12 0 21.5 4.5t16 15t10 28.5t3.5 46h162q-2 -100 -51 -152t-161 -52q-65 0 -109 15.5t-71 49.5t-38.5 88t-11.5 131q0 78 13 132t41 88t71.5 49.5t104.5 15.5q54 0 94.5 -13t68 -43.5t41 -80.5t13.5 -123v-55h-267zM299 362 q0 43 -10.5 63t-39.5 20q-28 0 -38.5 -20t-10.5 -63v-24h99v24zM236 737h168l-96 -146h-116z"/>
<glyph glyph-name="ecircumflex" horiz-adv-x="481" unicode="ê" d="M200 240v-71q0 -44 15 -58.5t34 -14.5q12 0 21.5 4.5t16 15t10 28.5t3.5 46h162q-2 -100 -51 -152t-161 -52q-65 0 -109 15.5t-71 49.5t-38.5 88t-11.5 131q0 78 13 132t41 88t71.5 49.5t104.5 15.5q54 0 94.5 -13t68 -43.5t41 -80.5t13.5 -123v-55h-267zM299 362 q0 43 -10.5 63t-39.5 20q-28 0 -38.5 -20t-10.5 -63v-24h99v24zM156 737h192l62 -146h-122l-36 80l-36 -80h-122z"/>
<glyph glyph-name="edieresis" horiz-adv-x="481" unicode="ë" d="M200 240v-71q0 -44 15 -58.5t34 -14.5q12 0 21.5 4.5t16 15t10 28.5t3.5 46h162q-2 -100 -51 -152t-161 -52q-65 0 -109 15.5t-71 49.5t-38.5 88t-11.5 131q0 78 13 132t41 88t71.5 49.5t104.5 15.5q54 0 94.5 -13t68 -43.5t41 -80.5t13.5 -123v-55h-267zM299 362 q0 43 -10.5 63t-39.5 20q-28 0 -38.5 -20t-10.5 -63v-24h99v24zM94 734h134v-140h-134v140zM276 734h134v-140h-134v140z"/>
<glyph glyph-name="igrave" horiz-adv-x="258" unicode="ì" d="M39 541h180v-541h-180v541zM4 737h168l44 -146h-116z"/>
<glyph glyph-name="iacute" horiz-adv-x="258" unicode="í" d="M39 541h180v-541h-180v541zM84 737h168l-96 -146h-116z"/>
<glyph glyph-name="icircumflex" horiz-adv-x="258" unicode="î" d="M39 541h180v-541h-180v541zM35 737h192l62 -146h-122l-36 80l-36 -80h-122z"/>
<glyph glyph-name="idieresis" horiz-adv-x="258" unicode="ï" d="M39 541h180v-541h-180v541zM-28 734h134v-140h-134v140zM154 734h134v-140h-134v140z"/>
<glyph glyph-name="eth" horiz-adv-x="500" unicode="ð" d="M200 270q0 -51 2 -83.5t8 -51.5t15.5 -26t24.5 -7t25 7t15.5 26t7.5 51.5t2 83.5q0 42 -2 69.5t-7.5 44t-15.5 23.5t-25 7t-24.5 -7t-15.5 -23.5t-8 -44t-2 -69.5zM136 671q-29 29 -50 47l109 82q19 -15 36.5 -30t32.5 -30l80 43l44 -69l-65 -35q75 -85 116 -181.5 t41 -211.5q0 -62 -7.5 -117t-31.5 -95.5t-69.5 -64t-121.5 -23.5q-65 0 -109 15t-71 48t-38.5 84.5t-11.5 124.5q0 80 14 132.5t38 83.5t54.5 43.5t63.5 12.5q23 0 44 -7t38 -18l2 2q-11 20 -32 46.5t-47 55.5l-84 -45l-46 69z"/>
<glyph glyph-name="ntilde" d="M36 541h174v-66h2q35 80 131 80q30 0 55.5 -6.5t44.5 -23.5t30 -45.5t11 -71.5v-408h-180v357q0 34 -10 49t-34 15t-34 -15t-10 -49v-357h-180v541zM418 734q-8 -75 -36 -107.5t-64 -32.5q-20 0 -37.5 4.5t-32.5 10.5t-27.5 10.5t-23.5 4.5t-17 -8.5t-6 -21.5h-86 q9 69 32 104.5t66 35.5q16 0 32.5 -4.5t32.5 -10.5q16 -5 29.5 -10t24.5 -5t18 6.5t9 23.5h86z" unicode="ñ"/>
<glyph glyph-name="ograve" horiz-adv-x="500" unicode="ò" d="M480 270q0 -53 -7.5 -104t-31.5 -91t-69.5 -64.5t-121.5 -24.5q-79 0 -125 22.5t-69 61.5t-29.5 90.5t-6.5 110.5q0 53 7.5 104t31.5 91t69.5 64.5t121.5 24.5q79 0 125 -22.5t69 -61.5t29.5 -91t6.5 -110zM200 270q0 -51 2 -83.5t8 -51.5t15.5 -26t24.5 -7t25 7t15.5 26 t7.5 51.5t2 83.5t-2 84t-7.5 52t-15.5 26t-25 7t-24.5 -7t-15.5 -26t-8 -52t-2 -84zM114 737h168l44 -146h-116z"/>
<glyph glyph-name="oacute" horiz-adv-x="500" unicode="ó" d="M480 270q0 -53 -7.5 -104t-31.5 -91t-69.5 -64.5t-121.5 -24.5q-79 0 -125 22.5t-69 61.5t-29.5 90.5t-6.5 110.5q0 53 7.5 104t31.5 91t69.5 64.5t121.5 24.5q79 0 125 -22.5t69 -61.5t29.5 -91t6.5 -110zM200 270q0 -51 2 -83.5t8 -51.5t15.5 -26t24.5 -7t25 7t15.5 26 t7.5 51.5t2 83.5t-2 84t-7.5 52t-15.5 26t-25 7t-24.5 -7t-15.5 -26t-8 -52t-2 -84zM237 737h168l-96 -146h-116z"/>
<glyph glyph-name="ocircumflex" horiz-adv-x="500" unicode="ô" d="M480 270q0 -53 -7.5 -104t-31.5 -91t-69.5 -64.5t-121.5 -24.5q-79 0 -125 22.5t-69 61.5t-29.5 90.5t-6.5 110.5q0 53 7.5 104t31.5 91t69.5 64.5t121.5 24.5q79 0 125 -22.5t69 -61.5t29.5 -91t6.5 -110zM200 270q0 -51 2 -83.5t8 -51.5t15.5 -26t24.5 -7t25 7t15.5 26 t7.5 51.5t2 83.5t-2 84t-7.5 52t-15.5 26t-25 7t-24.5 -7t-15.5 -26t-8 -52t-2 -84zM155 737h192l62 -146h-122l-36 80l-36 -80h-122z"/>
<glyph glyph-name="otilde" horiz-adv-x="500" unicode="õ" d="M480 270q0 -53 -7.5 -104t-31.5 -91t-69.5 -64.5t-121.5 -24.5q-79 0 -125 22.5t-69 61.5t-29.5 90.5t-6.5 110.5q0 53 7.5 104t31.5 91t69.5 64.5t121.5 24.5q79 0 125 -22.5t69 -61.5t29.5 -91t6.5 -110zM200 270q0 -51 2 -83.5t8 -51.5t15.5 -26t24.5 -7t25 7t15.5 26 t7.5 51.5t2 83.5t-2 84t-7.5 52t-15.5 26t-25 7t-24.5 -7t-15.5 -26t-8 -52t-2 -84zM416 734q-8 -75 -36 -107.5t-64 -32.5q-20 0 -37.5 4.5t-32.5 10.5t-27.5 10.5t-23.5 4.5t-17 -8.5t-6 -21.5h-86q9 69 32 104.5t66 35.5q16 0 32.5 -4.5t32.5 -10.5q16 -5 29.5 -10 t24.5 -5t18 6.5t9 23.5h86z"/>
<glyph glyph-name="odieresis" horiz-adv-x="500" unicode="ö" d="M480 270q0 -53 -7.5 -104t-31.5 -91t-69.5 -64.5t-121.5 -24.5q-79 0 -125 22.5t-69 61.5t-29.5 90.5t-6.5 110.5q0 53 7.5 104t31.5 91t69.5 64.5t121.5 24.5q79 0 125 -22.5t69 -61.5t29.5 -91t6.5 -110zM200 270q0 -51 2 -83.5t8 -51.5t15.5 -26t24.5 -7t25 7t15.5 26 t7.5 51.5t2 83.5t-2 84t-7.5 52t-15.5 26t-25 7t-24.5 -7t-15.5 -26t-8 -52t-2 -84zM93 734h134v-140h-134v140zM275 734h134v-140h-134v140z"/>
<glyph glyph-name="divide" horiz-adv-x="600" unicode="÷" d="M47 323h506v-140h-506v140zM201 465q0 42 28.5 70.5t70.5 28.5t70.5 -28.5t28.5 -70.5t-28.5 -70.5t-70.5 -28.5t-70.5 28.5t-28.5 70.5zM201 41q0 42 28.5 70.5t70.5 28.5t70.5 -28.5t28.5 -70.5t-28.5 -70.5t-70.5 -28.5t-70.5 28.5t-28.5 70.5z"/>
<glyph glyph-name="oslash" horiz-adv-x="500" unicode="ø" d="M210 139q5 -21 14.5 -29t25.5 -8q15 0 25 7t15.5 26t7.5 51.5t2 83.5v20h-2zM291 404q-6 20 -15.5 27.5t-25.5 7.5q-15 0 -24.5 -7t-15.5 -26t-8 -52t-2 -84v-10q0 -6 1 -8zM76 44q-36 38 -46 97.5t-10 129.5q0 53 7.5 104t31.5 91t69.5 64.5t121.5 24.5q70 0 119 -20 l40 68l56 -36l-42 -70q18 -19 29.5 -44t17.5 -54t8 -61.5t2 -67.5q0 -53 -7.5 -104t-31.5 -91t-69.5 -64.5t-121.5 -24.5q-77 0 -119 21l-42 -69l-54 36z"/>
<glyph glyph-name="ugrave" d="M36 541h180v-357q0 -34 10 -49t34 -15t34 15t10 49v357h180v-541h-174v66h-2q-35 -80 -131 -80q-30 0 -55.5 6.5t-44.5 23.5t-30 45t-11 72v408zM127 737h168l44 -146h-116z" unicode="ù"/>
<glyph glyph-name="uacute" d="M36 541h180v-357q0 -34 10 -49t34 -15t34 15t10 49v357h180v-541h-174v66h-2q-35 -80 -131 -80q-30 0 -55.5 6.5t-44.5 23.5t-30 45t-11 72v408zM241 737h168l-96 -146h-116z" unicode="ú"/>
<glyph glyph-name="ucircumflex" d="M36 541h180v-357q0 -34 10 -49t34 -15t34 15t10 49v357h180v-541h-174v66h-2q-35 -80 -131 -80q-30 0 -55.5 6.5t-44.5 23.5t-30 45t-11 72v408zM163 737h192l62 -146h-122l-36 80l-36 -80h-122z" unicode="û"/>
<glyph glyph-name="udieresis" d="M36 541h180v-357q0 -34 10 -49t34 -15t34 15t10 49v357h180v-541h-174v66h-2q-35 -80 -131 -80q-30 0 -55.5 6.5t-44.5 23.5t-30 45t-11 72v408zM101 734h134v-140h-134v140zM283 734h134v-140h-134v140z" unicode="ü"/>
<glyph glyph-name="yacute" horiz-adv-x="463" unicode="ý" d="M50 -46q10 -2 20 -3t20 -1q17 0 28.5 5t18.5 11.5t10 13.5t3 11q0 6 -2.5 17.5t-5.5 22.5l-143 510h186l55 -365h2l52 365h180l-145 -559q-12 -47 -27.5 -77.5t-37 -48.5t-49.5 -25t-64 -7q-29 0 -53.5 1t-47.5 3v126zM224 737h168l-96 -146h-116z"/>
<glyph glyph-name="thorn" d="M39 714h180v-247h2q16 46 45 67q28 21 72 21q90 0 126 -73t36 -223q0 -78 -11.5 -130.5t-32.5 -84t-52 -45t-70 -13.5q-38 0 -68.5 16.5t-44.5 58.5h-2v-237h-180v890zM219 271q0 -44 2 -73t7.5 -46.5t15.5 -24.5t25 -7q16 0 26 7t15.5 24.5t7.5 46.5t2 73q0 43 -2 72 t-7.5 46.5t-15.5 24.5t-26 7q-15 0 -25 -7t-15.5 -24.5t-7.5 -46.5t-2 -72z" unicode="þ"/>
<glyph glyph-name="dotlessi" horiz-adv-x="258" unicode="ı" d="M39 541h180v-541h-180v541z"/>
<glyph glyph-name="OE" horiz-adv-x="759" unicode="Œ" d="M511 152h232v-152h-384v31h-2q-18 -22 -50.5 -33.5t-72.5 -11.5q-65 0 -106 19.5t-64 64t-32 115t-9 172.5q0 105 11.5 176t36.5 114.5t64 62t94 18.5q39 0 71.5 -10t58.5 -35v31h375v-152h-223v-122h208v-146h-208v-142zM209 357q0 -72 2 -119.5t8.5 -75.5t19.5 -39 t35 -11q21 0 33.5 11t19 39t8.5 75.5t2 119.5t-2 119.5t-8.5 75.5t-19 39t-33.5 11q-22 0 -35 -11t-19.5 -39t-8.5 -75.5t-2 -119.5z"/>
<glyph glyph-name="oe" horiz-adv-x="740" unicode="œ" d="M193 270q0 -51 2 -83.5t8 -51.5t15.5 -26t24.5 -7t25 7t15.5 26t7.5 51.5t2 83.5t-2 84t-7.5 52t-15.5 26t-25 7t-24.5 -7t-15.5 -26t-8 -52t-2 -84zM461 338h98v24q0 43 -10.5 63t-39.5 20q-27 0 -37.5 -20t-10.5 -63v-24zM721 190q-1 -49 -12.5 -87t-37.5 -64 q-53 -53 -149 -53q-54 0 -93.5 17.5t-55.5 49.5q-23 -37 -60.5 -52t-85.5 -15q-56 0 -96.5 15t-66.5 48.5t-38.5 88t-12.5 132.5q0 76 12.5 130.5t39.5 88.5t70.5 50t105.5 16q47 0 85.5 -18.5t54.5 -42.5q22 25 58 43t90 18q51 0 88 -13t61.5 -43.5t36.5 -80.5t12 -123v-55 h-266v-71q0 -44 15 -58.5t33 -14.5q12 0 21.5 4.5t15.5 15t9.5 28.5t3.5 46h162z"/>
<glyph glyph-name="Scaron" horiz-adv-x="537" unicode="Š" d="M322 508v17q0 32 -13 54.5t-40 22.5q-30 0 -44 -19.5t-14 -43.5q0 -35 22.5 -55.5t56.5 -35.5t73 -30.5t73 -40.5t56.5 -65.5t22.5 -105.5q0 -114 -65 -167t-188 -53q-58 0 -102.5 10.5t-75 34.5t-46.5 62t-16 94v25h180v-17q0 -46 17 -64.5t44 -18.5q29 0 44.5 20 t15.5 49q0 35 -21.5 55.5t-54 35t-70.5 29.5t-70.5 39t-54 63t-21.5 102q0 109 58 166t176 57q122 0 176.5 -52.5t54.5 -167.5h-174zM112 911h122l36 -80l36 80h122l-62 -146h-192z"/>
<glyph glyph-name="scaron" horiz-adv-x="463" unicode="š" d="M175 168q0 -16 3 -30t10 -23q13 -19 38 -19q21 0 36.5 12t15.5 34q0 24 -19.5 37t-48.5 23t-62.5 21t-62.5 30t-48.5 50.5t-19.5 82.5q0 36 13 66.5t39.5 53.5t67 36t95.5 13q203 0 203 -170h-156q0 35 -12.5 47.5t-35.5 12.5q-20 0 -33 -11t-13 -31q0 -23 19.5 -34.5 t48.5 -20.5t62.5 -19t62.5 -28.5t48.5 -50t19.5 -83.5q0 -39 -15 -72.5t-42.5 -57.5t-68 -37.5t-91.5 -13.5q-113 0 -162.5 46.5t-49.5 135.5h158zM76 737h122l36 -80l36 80h122l-62 -146h-192z"/>
<glyph glyph-name="Ydieresis" d="M167 281l-182 433h204l70 -249h2l70 249h204l-182 -433v-281h-186v281zM102 908h134v-140h-134v140zM284 908h134v-140h-134v140z" unicode="Ÿ"/>
<glyph glyph-name="circumflex" horiz-adv-x="260" unicode="ˆ" d="M34 737h192l62 -146h-122l-36 80l-36 -80h-122z"/>
<glyph glyph-name="caron" horiz-adv-x="260" unicode="ˇ" d="M-28 737h122l36 -80l36 80h122l-62 -146h-192z"/>
<glyph glyph-name="ring" horiz-adv-x="260" unicode="˚" d="M19 690q0 23 9 43t24 34.5t35 22.5t43 8q22 0 42.5 -8t35.5 -22.5t24 -34.5t9 -43t-9 -43t-24 -34.5t-35.5 -22.5t-42.5 -8q-48 0 -79.5 30t-31.5 78zM85 690q0 -19 13 -32t32 -13t32 13t13 32t-13 32t-32 13t-32 -13t-13 -32z"/>
<glyph glyph-name="tilde" horiz-adv-x="260" unicode="˜" d="M295 734q-8 -75 -36 -107.5t-64 -32.5q-20 0 -37.5 4.5t-32.5 10.5t-27.5 10.5t-23.5 4.5t-17 -8.5t-6 -21.5h-86q9 69 32 104.5t66 35.5q16 0 32.5 -4.5t32.5 -10.5q16 -5 29.5 -10t24.5 -5t18 6.5t9 23.5h86z"/>
<glyph glyph-name="uni0394" horiz-adv-x="722" unicode="Δ" d="M12 0l249 712h177l272 -712h-698zM352 536l-124 -386h258z"/>
<glyph glyph-name="uni03BC" d="M36 541h180v-357q0 -34 10 -49t34 -15t34 15t10 49v357h180v-541h-174v66h-2q-16 -37 -35 -58.5t-42 -21.5q-9 0 -15 3v-165h-180v717z" unicode="μ"/>
<glyph glyph-name="pi" horiz-adv-x="629" unicode="π" d="M604 21q-29 -15 -53 -22.5t-56 -7.5q-37 0 -61.5 10.5t-39 30t-20.5 46.5t-6 60v217h-143v-355h-155v355h-70v141h604v-141h-81v-155q0 -12 -0.5 -25.5t2.5 -25t11 -19t25 -7.5q11 0 21.5 3t21.5 8v-113z"/>
<glyph glyph-name="endash" horiz-adv-x="500" unicode="–" d="M0 362h500v-146h-500v146z"/>
<glyph glyph-name="emdash" horiz-adv-x="1000" unicode="—" d="M0 362h1000v-146h-1000v146z"/>
<glyph glyph-name="quoteleft" horiz-adv-x="260" unicode="‘" d="M46 520q0 97 39 144.5t129 49.5v-86q-36 -4 -50 -24t-14 -60v-12h64v-192h-168v180z"/>
<glyph glyph-name="quotesinglbase" horiz-adv-x="260" unicode="‚" d="M46 198h168v-180q0 -97 -39 -144.5t-129 -49.5v86q36 4 50 24t14 60v12h-64v192z"/>
<glyph glyph-name="quotedblleft" horiz-adv-x="481" unicode="“" d="M271 520q0 97 39 144.5t129 49.5v-86q-36 -4 -50 -24t-14 -60v-12h64v-192h-168v180zM42 520q0 97 39 144.5t129 49.5v-86q-36 -4 -50 -24t-14 -60v-12h64v-192h-168v180z"/>
<glyph glyph-name="quotedblright" horiz-adv-x="481" unicode="”" d="M42 714h168v-180q0 -97 -39 -144.5t-129 -49.5v86q36 4 50 24t14 60v12h-64v192zM271 714h168v-180q0 -97 -39 -144.5t-129 -49.5v86q36 4 50 24t14 60v12h-64v192z"/>
<glyph glyph-name="dagger" d="M170 714h180v-194h162v-140h-162v-520h-180v520h-162v140h162v194z" unicode="†"/>
<glyph glyph-name="daggerdbl" d="M8 194h162v186h-162v140h162v194h180v-194h162v-140h-162v-186h162v-140h-162v-194h-180v194h-162v140z" unicode="‡"/>
<glyph glyph-name="ellipsis" horiz-adv-x="1000" unicode="…" d="M83 198h168v-198h-168v198zM416 198h168v-198h-168v198zM749 198h168v-198h-168v198z"/>
<glyph glyph-name="perthousand" horiz-adv-x="1111" unicode="‰" d="M558 178q0 -35 1.5 -56.5t5 -34t10.5 -17t18 -4.5t18 4.5t10.5 17t5 34t1.5 56.5q0 34 -1.5 56t-5 34.5t-10.5 17t-18 4.5t-18 -4.5t-10.5 -17t-5 -34.5t-1.5 -56zM484 708h110l-317 -722h-110zM134 516q0 -35 1.5 -56.5t5 -34t10.5 -17t18 -4.5t18 4.5t10.5 17t5 34 t1.5 56.5q0 34 -1.5 56t-5 34.5t-10.5 17t-18 4.5t-18 -4.5t-10.5 -17t-5 -34.5t-1.5 -56zM436 178q0 52 8 88.5t26.5 59.5t48.5 33.5t74 10.5t74 -10.5t48.5 -33.5t26.5 -59.5t8 -88.5t-8 -88.5t-26.5 -59.5t-48.5 -33.5t-74 -10.5t-74 10.5t-48.5 33.5t-26.5 59.5t-8 88.5 zM12 516q0 52 8 88.5t26.5 59.5t48.5 33.5t74 10.5t74 -10.5t48.5 -33.5t26.5 -59.5t8 -88.5t-8 -88.5t-26.5 -59.5t-48.5 -33.5t-74 -10.5t-74 10.5t-48.5 33.5t-26.5 59.5t-8 88.5zM785 178q0 52 8 88.5t26.5 59.5t48.5 33.5t74 10.5t74 -10.5t48.5 -33.5t26.5 -59.5 t8 -88.5t-8 -88.5t-26.5 -59.5t-48.5 -33.5t-74 -10.5t-74 10.5t-48.5 33.5t-26.5 59.5t-8 88.5zM907 178q0 -35 1.5 -56.5t5 -34t10.5 -17t18 -4.5t18 4.5t10.5 17t5 34t1.5 56.5q0 34 -1.5 56t-5 34.5t-10.5 17t-18 4.5t-18 -4.5t-10.5 -17t-5 -34.5t-1.5 -56z"/>
<glyph glyph-name="guilsinglleft" horiz-adv-x="240" unicode="‹" d="M42 399l156 104v-158l-84 -56l84 -56v-158l-156 104v220z"/>
<glyph glyph-name="guilsinglright" horiz-adv-x="240" unicode="›" d="M42 233l84 56l-84 56v158l156 -104v-220l-156 -104v158z"/>
<glyph glyph-name="fraction" horiz-adv-x="167" unicode="⁄" d="M222 725h110l-387 -756h-110z"/>
<glyph glyph-name="Euro" d="M439 516q-16 29 -39 52.5t-59 23.5q-27 0 -42.5 -10.5t-23.5 -27t-10 -37.5t-2 -42h168l-27 -98h-142v-36v-14h134l-27 -98h-105q1 -19 2.5 -41t8 -41t20 -31.5t39.5 -12.5q24 0 45 10.5t38.5 27t31.5 36.5t25 39v-181q-38 -29 -75 -39.5t-85 -10.5q-62 0 -103 17 t-66.5 49t-37.5 77t-15 101h-61l27 98h31v41v9h-53l27 98h30q4 58 18 102.5t41.5 74.5t70 45.5t103.5 15.5q47 0 84.5 -10t80.5 -29z" unicode="€"/>
<glyph glyph-name="trademark" horiz-adv-x="1000" unicode="™" d="M114 610h-104v104h348v-104h-104v-308h-140v308zM830 562h-2l-90 -260h-86l-90 260h-2v-260h-128v412h174l89 -219l89 219h174v-412h-128v260z"/>
<glyph glyph-name="partialdiff" horiz-adv-x="593" unicode="∂" d="M548 358q0 -65 -11 -131t-40 -119.5t-80 -87.5t-130 -34q-53 0 -97.5 17t-76.5 47.5t-50 74.5t-18 98q0 48 16.5 90t46.5 73t71 49t91 18q67 0 123 -41q0 28 -5 61.5t-18.5 62.5t-36.5 48t-60 19t-65.5 -16.5t-54.5 -41.5l-84 93q45 42 91.5 62.5t108.5 20.5 q79 0 133 -31.5t86 -82.5t46 -116.5t14 -132.5zM391 294q-17 17 -43.5 30t-51.5 13q-26 0 -44.5 -10.5t-31.5 -27.5t-19 -39t-6 -44q0 -21 5.5 -41.5t17 -37t28.5 -27t41 -10.5q31 0 51 18t32 44t16.5 56.5t4.5 54.5v21z"/>
<glyph glyph-name="product" horiz-adv-x="759" unicode="∏" d="M555 -214v845h-350v-845h-157v1000h663v-1000h-156z"/>
<glyph glyph-name="summation" horiz-adv-x="704" unicode="∑" d="M30 -214v135l286 372l-275 356v137h621v-156h-413l251 -337l-266 -351h440v-156h-644z"/>
<glyph glyph-name="minus" horiz-adv-x="600" unicode="−" d="M47 323h506v-140h-506v140z"/>
<glyph glyph-name="radical" horiz-adv-x="611" unicode="√" d="M392 -214h-142l-140 286l-58 -27l-58 122l198 91l104 -232l155 760h166z"/>
<glyph glyph-name="infinity" horiz-adv-x="889" unicode="∞" d="M844 276q0 -47 -13.5 -87t-39.5 -70t-63.5 -47t-86.5 -17q-33 0 -61 9t-52 25t-45 37.5t-39 46.5q-18 -25 -38 -46.5t-43 -37t-50 -24.5t-60 -9q-49 0 -87.5 16.5t-65.5 46t-41 70t-14 87.5q0 46 13.5 85.5t39.5 68t64 44.5t86 16q36 0 63.5 -9.5t50.5 -26.5t42.5 -40 t39.5 -50q19 27 38.5 50.5t43 40t51.5 26t64 9.5q48 0 86 -16t64 -44.5t39.5 -68t13.5 -85.5zM712 273q0 34 -20.5 57t-55.5 23q-17 0 -33.5 -8t-31 -20t-27 -26.5t-21.5 -27.5q10 -14 22.5 -28t27 -25t31 -18t35.5 -7q36 0 54.5 23t18.5 57zM365 271q-9 13 -22 27.5 t-28 26.5t-32 20t-34 8q-34 0 -53 -24.5t-19 -56.5q0 -34 19 -56t54 -22q37 0 66 24t49 53z"/>
<glyph glyph-name="approxequal" horiz-adv-x="593" unicode="≈" d="M579 503q-2 -33 -12 -71t-29.5 -70t-48.5 -53.5t-69 -21.5q-27 0 -59 9.5t-65.5 20.5t-67 20.5t-61.5 9.5q-23 0 -36.5 -16t-15.5 -38h-101q0 33 10 71t30 70t49.5 53.5t68.5 21.5q29 0 61.5 -9t66 -20.5t65.5 -20.5t61 -9q26 0 37.5 15t13.5 38h102zM579 253 q-2 -32 -11 -70t-27 -70.5t-46.5 -54.5t-68.5 -22q-31 0 -64 9.5t-66.5 20.5t-66 20.5t-61.5 9.5q-25 0 -37.5 -14.5t-15.5 -37.5h-101q0 31 10.5 68.5t30 69.5t48 54t65.5 22q33 0 65 -9t64 -20.5t64 -20.5t65 -9q27 0 37 15.5t14 38.5h102z"/>
<glyph glyph-name="notequal" horiz-adv-x="593" unicode="≠" d="M284 72l-80 -163l-138 68l46 95h-89v157h167l42 87h-209v158h287l80 161l137 -68l-46 -93h88v-158h-165l-43 -87h208v-157h-285z"/>
<glyph glyph-name="lessequal" horiz-adv-x="593" unicode="≤" d="M23 292v156l546 148v-160l-326 -66l326 -81v-161zM23 -53v157h546v-157h-546z"/>
<glyph glyph-name="greaterequal" horiz-adv-x="593" unicode="≥" d="M23 128v161l327 81l-327 66v160l546 -148v-156zM23 -53v157h546v-157h-546z"/>
<glyph glyph-name="lozenge" horiz-adv-x="593" unicode="◊" d="M366 -35h-142l-194 391l196 391h140l196 -391zM296 587l-105 -231l105 -231l104 231z"/>
</font>
</defs>
</svg>
